G04 #@! TF.FileFunction,Soldermask,Top*
%FSLAX46Y46*%
G04 Gerber Fmt 4.6, Leading zero omitted, Abs format (unit mm)*
G04 Created by KiCad (PCBNEW (after 2015-mar-04 BZR unknown)-product) date 25.04.2015 20:58:03*
%MOMM*%
G01*
G04 APERTURE LIST*
%ADD10C,0.100000*%
%ADD11R,1.216000X1.089000*%
%ADD12R,1.343000X1.597000*%
%ADD13R,1.089000X1.216000*%
%ADD14R,1.700000X1.700000*%
%ADD15C,1.700000*%
%ADD16R,1.597000X1.343000*%
%ADD17R,1.800000X1.800000*%
%ADD18C,1.800000*%
%ADD19O,1.599540X0.708000*%
%ADD20R,1.599540X0.708000*%
%ADD21R,1.300000X1.300000*%
%ADD22R,1.400000X0.600000*%
%ADD23O,1.400000X0.600000*%
%ADD24R,0.835000X1.300000*%
%ADD25O,0.835000X1.300000*%
%ADD26R,0.500000X1.400000*%
%ADD27O,0.500000X1.400000*%
%ADD28O,1.400000X0.500000*%
%ADD29C,6.200000*%
%ADD30R,2.348840X5.998820*%
%ADD31R,1.114400X1.114400*%
%ADD32R,1.100000X1.200000*%
%ADD33R,1.200000X1.100000*%
%ADD34C,4.600000*%
%ADD35C,1.600000*%
%ADD36R,1.600000X1.600000*%
%ADD37C,4.200000*%
%ADD38C,2.700000*%
%ADD39R,1.700000X2.700000*%
%ADD40R,2.700000X1.700000*%
%ADD41R,0.600000X1.450000*%
%ADD42R,2.099920X1.398880*%
%ADD43C,2.400000*%
%ADD44C,4.000000*%
%ADD45O,1.700000X0.600000*%
G04 APERTURE END LIST*
D10*
D11*
X70200000Y-57038000D03*
X70200000Y-58562000D03*
X70200000Y-61762000D03*
X70200000Y-60238000D03*
D12*
X95516000Y-59000000D03*
X93484000Y-59000000D03*
D13*
X95262000Y-61500000D03*
X93738000Y-61500000D03*
X94362000Y-75400000D03*
X92838000Y-75400000D03*
X94262000Y-83000000D03*
X92738000Y-83000000D03*
D14*
X91500000Y-65500000D03*
D15*
X91500000Y-70500000D03*
D16*
X93500000Y-90484000D03*
X93500000Y-92516000D03*
D11*
X91500000Y-90238000D03*
X91500000Y-91762000D03*
X77500000Y-98262000D03*
X77500000Y-96738000D03*
D13*
X89238000Y-99500000D03*
X90762000Y-99500000D03*
X88238000Y-101500000D03*
X89762000Y-101500000D03*
X80238000Y-87000000D03*
X81762000Y-87000000D03*
D16*
X80600000Y-35416000D03*
X80600000Y-33384000D03*
D11*
X78400000Y-35162000D03*
X78400000Y-33638000D03*
D16*
X83400000Y-50216000D03*
X83400000Y-48184000D03*
D11*
X93500000Y-51262000D03*
X93500000Y-49738000D03*
X87900000Y-104038000D03*
X87900000Y-105562000D03*
X78900000Y-105562000D03*
X78900000Y-104038000D03*
D17*
X68230000Y-45500000D03*
D18*
X70770000Y-45500000D03*
D17*
X83500000Y-73770000D03*
D18*
X83500000Y-71230000D03*
D17*
X76500000Y-73770000D03*
D18*
X76500000Y-71230000D03*
D17*
X69500000Y-73770000D03*
D18*
X69500000Y-71230000D03*
D17*
X98230000Y-45500000D03*
D18*
X100770000Y-45500000D03*
D17*
X83230000Y-111500000D03*
D18*
X85770000Y-111500000D03*
D19*
X83206000Y-35905000D03*
D20*
X88794000Y-35905000D03*
D19*
X83206000Y-34635000D03*
X83206000Y-33365000D03*
X83206000Y-32095000D03*
X88794000Y-34635000D03*
X88794000Y-33365000D03*
X88794000Y-32095000D03*
D21*
X86000000Y-34000000D03*
X84900000Y-34000000D03*
X87100000Y-34000000D03*
X86000000Y-32900000D03*
X86000000Y-31800000D03*
X84900000Y-32900000D03*
X84900000Y-31800000D03*
X87100000Y-31800000D03*
X87100000Y-32900000D03*
X84900000Y-36200000D03*
X84900000Y-35100000D03*
X86000000Y-36200000D03*
X86000000Y-35100000D03*
X87100000Y-36200000D03*
X87100000Y-35100000D03*
X87950000Y-51050000D03*
X87950000Y-49950000D03*
X89050000Y-51050000D03*
X89050000Y-49950000D03*
X87950000Y-52150000D03*
X89050000Y-52150000D03*
X87950000Y-48850000D03*
X89050000Y-48850000D03*
D22*
X90600000Y-51700000D03*
D23*
X90600000Y-50900000D03*
X90600000Y-50100000D03*
X90600000Y-49300000D03*
X86400000Y-49300000D03*
X86400000Y-50100000D03*
X86400000Y-50900000D03*
X86400000Y-51700000D03*
D24*
X92550000Y-80300000D03*
D25*
X93500000Y-80300000D03*
X94450000Y-80300000D03*
X94450000Y-77700000D03*
X92550000Y-77700000D03*
D26*
X81750000Y-98250000D03*
D27*
X82250000Y-98250000D03*
X82750000Y-98250000D03*
X83250000Y-98250000D03*
X83750000Y-98250000D03*
X84250000Y-98250000D03*
X84750000Y-98250000D03*
X85250000Y-98250000D03*
X85750000Y-98250000D03*
X86250000Y-98250000D03*
X86750000Y-98250000D03*
X87250000Y-98250000D03*
D28*
X88750000Y-96750000D03*
X88750000Y-96250000D03*
X88750000Y-95750000D03*
X88750000Y-95250000D03*
X88750000Y-94750000D03*
X88750000Y-94250000D03*
X88750000Y-93750000D03*
X88750000Y-93250000D03*
X88750000Y-92750000D03*
X88750000Y-92250000D03*
X88750000Y-91750000D03*
X88750000Y-91250000D03*
D27*
X87250000Y-89750000D03*
X86750000Y-89750000D03*
X86250000Y-89750000D03*
X85750000Y-89750000D03*
X85250000Y-89750000D03*
X84750000Y-89750000D03*
X84250000Y-89750000D03*
X83750000Y-89750000D03*
X83250000Y-89750000D03*
X82750000Y-89750000D03*
X82250000Y-89750000D03*
X81750000Y-89750000D03*
D28*
X80250000Y-91250000D03*
X80250000Y-91750000D03*
X80250000Y-92250000D03*
X80250000Y-92750000D03*
X80250000Y-93250000D03*
X80250000Y-93750000D03*
X80250000Y-94250000D03*
X80250000Y-94750000D03*
X80250000Y-95250000D03*
X80250000Y-95750000D03*
X80250000Y-96250000D03*
X80250000Y-96750000D03*
D29*
X99500000Y-176500000D03*
X69500000Y-176500000D03*
X99500000Y-38500000D03*
X69500000Y-38500000D03*
D30*
X90125320Y-57000000D03*
X86274680Y-57000000D03*
D31*
X98111000Y-66984000D03*
X99889000Y-66984000D03*
X99000000Y-69016000D03*
D32*
X70250000Y-50500000D03*
X68750000Y-50500000D03*
D33*
X83500000Y-78250000D03*
X83500000Y-76750000D03*
D32*
X93250000Y-36500000D03*
X91750000Y-36500000D03*
D33*
X76500000Y-78250000D03*
X76500000Y-76750000D03*
X69500000Y-78250000D03*
X69500000Y-76750000D03*
D32*
X69050000Y-85600000D03*
X70550000Y-85600000D03*
X69050000Y-87800000D03*
X70550000Y-87800000D03*
X84250000Y-101500000D03*
X85750000Y-101500000D03*
X69050000Y-98800000D03*
X70550000Y-98800000D03*
X69050000Y-81200000D03*
X70550000Y-81200000D03*
D33*
X93500000Y-56750000D03*
X93500000Y-55250000D03*
X95500000Y-55250000D03*
X95500000Y-56750000D03*
D32*
X69050000Y-83400000D03*
X70550000Y-83400000D03*
X69050000Y-90000000D03*
X70550000Y-90000000D03*
X69050000Y-92200000D03*
X70550000Y-92200000D03*
X69050000Y-94400000D03*
X70550000Y-94400000D03*
X69050000Y-96600000D03*
X70550000Y-96600000D03*
X69050000Y-101000000D03*
X70550000Y-101000000D03*
X98250000Y-64500000D03*
X99750000Y-64500000D03*
X78650000Y-111600000D03*
X80150000Y-111600000D03*
X98750000Y-50500000D03*
X100250000Y-50500000D03*
D14*
X74500000Y-97500000D03*
D15*
X74500000Y-94960000D03*
X74500000Y-92420000D03*
X74500000Y-89880000D03*
D14*
X100000000Y-95000000D03*
D15*
X100000000Y-92460000D03*
X100000000Y-89920000D03*
D14*
X74500000Y-112500000D03*
D15*
X74500000Y-109960000D03*
X74500000Y-107420000D03*
X74500000Y-104880000D03*
D34*
X55800000Y-21750000D03*
X55800000Y-33250000D03*
D35*
X64689960Y-26865000D03*
X62149960Y-28135000D03*
X64689960Y-29405000D03*
X62149960Y-25595000D03*
D36*
X64692500Y-24325000D03*
D35*
X62152500Y-30675000D03*
D34*
X55800000Y-37750000D03*
X55800000Y-49250000D03*
D35*
X64689960Y-42865000D03*
X62149960Y-44135000D03*
X64689960Y-45405000D03*
X62149960Y-41595000D03*
D36*
X64692500Y-40325000D03*
D35*
X62152500Y-46675000D03*
D34*
X55800000Y-53750000D03*
X55800000Y-65250000D03*
D35*
X64689960Y-58865000D03*
X62149960Y-60135000D03*
X64689960Y-61405000D03*
X62149960Y-57595000D03*
D36*
X64692500Y-56325000D03*
D35*
X62152500Y-62675000D03*
D34*
X55800000Y-69750000D03*
X55800000Y-81250000D03*
D35*
X64689960Y-74865000D03*
X62149960Y-76135000D03*
X64689960Y-77405000D03*
X62149960Y-73595000D03*
D36*
X64692500Y-72325000D03*
D35*
X62152500Y-78675000D03*
D34*
X55800000Y-85750000D03*
X55800000Y-97250000D03*
D35*
X64689960Y-90865000D03*
X62149960Y-92135000D03*
X64689960Y-93405000D03*
X62149960Y-89595000D03*
D36*
X64692500Y-88325000D03*
D35*
X62152500Y-94675000D03*
D37*
X72500000Y-25500000D03*
X68000000Y-30000000D03*
X72500000Y-32500000D03*
D38*
X99500000Y-31500000D03*
X99500000Y-26500000D03*
X94500000Y-26500000D03*
X94500000Y-31500000D03*
D34*
X55800000Y-101750000D03*
X55800000Y-113250000D03*
D35*
X64689960Y-106865000D03*
X62149960Y-108135000D03*
X64689960Y-109405000D03*
X62149960Y-105595000D03*
D36*
X64692500Y-104325000D03*
D35*
X62152500Y-110675000D03*
D34*
X55800000Y-117750000D03*
X55800000Y-129250000D03*
D35*
X64689960Y-122865000D03*
X62149960Y-124135000D03*
X64689960Y-125405000D03*
X62149960Y-121595000D03*
D36*
X64692500Y-120325000D03*
D35*
X62152500Y-126675000D03*
D34*
X55800000Y-133750000D03*
X55800000Y-145250000D03*
D35*
X64689960Y-138865000D03*
X62149960Y-140135000D03*
X64689960Y-141405000D03*
X62149960Y-137595000D03*
D36*
X64692500Y-136325000D03*
D35*
X62152500Y-142675000D03*
D34*
X55800000Y-149750000D03*
X55800000Y-161250000D03*
D35*
X64689960Y-154865000D03*
X62149960Y-156135000D03*
X64689960Y-157405000D03*
X62149960Y-153595000D03*
D36*
X64692500Y-152325000D03*
D35*
X62152500Y-158675000D03*
D34*
X55800000Y-165750000D03*
X55800000Y-177250000D03*
D35*
X64689960Y-170865000D03*
X62149960Y-172135000D03*
X64689960Y-173405000D03*
X62149960Y-169595000D03*
D36*
X64692500Y-168325000D03*
D35*
X62152500Y-174675000D03*
D39*
X89250000Y-20450000D03*
X78950000Y-20450000D03*
X89250000Y-24650000D03*
X78950000Y-24650000D03*
D40*
X86300000Y-26850000D03*
X81900000Y-26850000D03*
D41*
X85400000Y-24975000D03*
X84750000Y-24975000D03*
X84100000Y-24975000D03*
X83450000Y-24975000D03*
X82800000Y-24975000D03*
D34*
X113200000Y-33250000D03*
X113200000Y-21750000D03*
D35*
X104310040Y-28135000D03*
X106850040Y-26865000D03*
X104310040Y-25595000D03*
X106850040Y-29405000D03*
D36*
X104307500Y-30675000D03*
D35*
X106847500Y-24325000D03*
D34*
X113200000Y-49250000D03*
X113200000Y-37750000D03*
D35*
X104310040Y-44135000D03*
X106850040Y-42865000D03*
X104310040Y-41595000D03*
X106850040Y-45405000D03*
D36*
X104307500Y-46675000D03*
D35*
X106847500Y-40325000D03*
D34*
X113200000Y-65250000D03*
X113200000Y-53750000D03*
D35*
X104310040Y-60135000D03*
X106850040Y-58865000D03*
X104310040Y-57595000D03*
X106850040Y-61405000D03*
D36*
X104307500Y-62675000D03*
D35*
X106847500Y-56325000D03*
D34*
X113200000Y-81250000D03*
X113200000Y-69750000D03*
D35*
X104310040Y-76135000D03*
X106850040Y-74865000D03*
X104310040Y-73595000D03*
X106850040Y-77405000D03*
D36*
X104307500Y-78675000D03*
D35*
X106847500Y-72325000D03*
D34*
X113200000Y-97250000D03*
X113200000Y-85750000D03*
D35*
X104310040Y-92135000D03*
X106850040Y-90865000D03*
X104310040Y-89595000D03*
X106850040Y-93405000D03*
D36*
X104307500Y-94675000D03*
D35*
X106847500Y-88325000D03*
D34*
X113200000Y-113250000D03*
X113200000Y-101750000D03*
D35*
X104310040Y-108135000D03*
X106850040Y-106865000D03*
X104310040Y-105595000D03*
X106850040Y-109405000D03*
D36*
X104307500Y-110675000D03*
D35*
X106847500Y-104325000D03*
D34*
X113200000Y-129250000D03*
X113200000Y-117750000D03*
D35*
X104310040Y-124135000D03*
X106850040Y-122865000D03*
X104310040Y-121595000D03*
X106850040Y-125405000D03*
D36*
X104307500Y-126675000D03*
D35*
X106847500Y-120325000D03*
D34*
X113200000Y-145250000D03*
X113200000Y-133750000D03*
D35*
X104310040Y-140135000D03*
X106850040Y-138865000D03*
X104310040Y-137595000D03*
X106850040Y-141405000D03*
D36*
X104307500Y-142675000D03*
D35*
X106847500Y-136325000D03*
D34*
X113200000Y-161250000D03*
X113200000Y-149750000D03*
D35*
X104310040Y-156135000D03*
X106850040Y-154865000D03*
X104310040Y-153595000D03*
X106850040Y-157405000D03*
D36*
X104307500Y-158675000D03*
D35*
X106847500Y-152325000D03*
D34*
X113200000Y-177250000D03*
X113200000Y-165750000D03*
D35*
X104310040Y-172135000D03*
X106850040Y-170865000D03*
X104310040Y-169595000D03*
X106850040Y-173405000D03*
D36*
X104307500Y-174675000D03*
D35*
X106847500Y-168325000D03*
D42*
X81550880Y-105899820D03*
X85249120Y-105899820D03*
X85249120Y-103700180D03*
X81550880Y-103700180D03*
D43*
X80500000Y-42000000D03*
X84500000Y-42000000D03*
X88500000Y-42000000D03*
D44*
X76250000Y-42000000D03*
X92750000Y-42000000D03*
D29*
X99500000Y-112000000D03*
X69500000Y-112000000D03*
D45*
X80250000Y-65270000D03*
X80250000Y-64620000D03*
X80250000Y-63970000D03*
X80250000Y-63320000D03*
X80250000Y-62670000D03*
X80250000Y-62020000D03*
X80250000Y-61370000D03*
X80250000Y-60720000D03*
X80250000Y-60070000D03*
X80250000Y-59420000D03*
X80250000Y-58770000D03*
X80250000Y-58120000D03*
X80250000Y-57470000D03*
X80250000Y-56820000D03*
X73150000Y-56820000D03*
X73150000Y-57470000D03*
X73150000Y-58120000D03*
X73150000Y-58770000D03*
X73150000Y-59420000D03*
X73150000Y-60070000D03*
X73150000Y-60720000D03*
X73150000Y-61370000D03*
X73150000Y-62020000D03*
X73150000Y-62670000D03*
X73150000Y-63320000D03*
X73150000Y-63970000D03*
X73150000Y-64620000D03*
X73150000Y-65270000D03*
M02*
