M48
;DRILL file {kicad (after 2015-mar-04 BZR unknown)-product} date 25.04.2015 20:58:13
;FORMAT={-:-/ absolute / metric / decimal}
FMAT,2
METRIC,TZ
T1C0.400
T2C0.500
T3C0.800
T4C0.900
T5C1.200
T6C2.200
T7C2.700
T8C3.500
T9C3.600
%
G90
G05
M71
T1
X58.6Y-60.
X58.6Y-77.2
X58.6Y-92.8
X59.1Y-28.016
X59.1Y-44.016
X59.1Y-108.016
X59.1Y-124.016
X59.1Y-140.016
X59.1Y-156.016
X59.2Y-65.8
X59.2Y-129.8
X59.4Y-97.6
X59.4Y-113.2
X59.6Y-49.2
X59.6Y-69.8
X59.6Y-81.6
X59.6Y-87.8
X59.6Y-118.2
X59.6Y-135.6
X59.6Y-145.6
X59.6Y-161.2
X59.8Y-55.6
X59.8Y-104.4
X59.8Y-168.
X60.Y-151.4
X62.8Y-49.
X63.Y-65.8
X63.4Y-53.8
X63.4Y-69.6
X63.6Y-101.6
X63.8Y-97.
X63.8Y-133.6
X64.Y-129.2
X64.Y-145.
X64.Y-150.
X64.Y-161.
X64.2Y-80.8
X64.2Y-165.8
X64.4Y-85.6
X69.Y-53.2
X69.022Y-61.838
X69.132Y-59.426
X69.6Y-170.
X69.8Y-66.
X70.Y-107.2
X70.6Y-118.8
X70.6Y-126.6
X70.8Y-135.8
X70.8Y-144.6
X71.Y-103.
X71.2Y-161.6
X71.26Y-62.949
X71.4Y-153.6
X71.811Y-82.934
X71.869Y-97.739
X72.013Y-84.967
X72.275Y-91.621
X72.367Y-93.947
X72.6Y-69.
X72.8Y-72.8
X72.8Y-76.4
X73.2Y-80.2
X73.4Y-53.4
X74.2Y-46.8
X74.4Y-102.2
X74.954Y-86.558
X75.4Y-118.6
X75.528Y-51.755
X75.6Y-84.
X75.944Y-95.183
X76.292Y-87.024
X76.345Y-97.355
X76.4Y-64.6
X76.669Y-51.9
X77.Y-58.6
X77.403Y-94.874
X77.727Y-99.439
X78.591Y-63.039
X78.788Y-96.639
X78.884Y-93.488
X78.897Y-94.638
X79.Y-47.2
X79.Y-80.6
X79.2Y-127.2
X79.212Y-87.183
X79.283Y-102.935
X79.4Y-68.2
X79.8Y-52.4
X79.8Y-71.4
X79.8Y-75.2
X79.8Y-153.6
X79.8Y-160.8
X79.8Y-169.6
X79.815Y-98.496
X80.6Y-145.
X80.8Y-135.6
X81.531Y-93.236
X81.532Y-92.061
X81.66Y-66.508
X81.67Y-64.25
X82.376Y-102.442
X82.44Y-30.609
X82.6Y-83.4
X82.959Y-87.255
X83.Y-55.4
X83.158Y-91.545
X83.246Y-92.693
X83.4Y-52.6
X83.4Y-118.4
X83.546Y-28.14
X83.6Y-60.8
X83.658Y-31.141
X84.Y-47.
X84.4Y-96.2
X84.424Y-107.157
X85.Y-65.
X85.259Y-92.584
X85.542Y-28.27
X86.269Y-25.4
X86.387Y-86.23
X86.872Y-88.374
X87.Y-72.4
X87.Y-161.6
X87.111Y-94.745
X87.195Y-87.094
X87.4Y-169.8
X87.493Y-91.947
X88.2Y-82.4
X88.287Y-102.787
X88.4Y-77.4
X88.6Y-66.2
X88.8Y-61.8
X89.Y-89.4
X89.2Y-70.
X89.6Y-127.8
X90.Y-136.2
X90.012Y-94.5
X90.4Y-145.6
X90.443Y-98.334
X90.6Y-153.6
X91.342Y-96.52
X91.4Y-108.
X91.4Y-117.8
X91.6Y-111.4
X91.819Y-50.527
X91.883Y-92.865
X92.36Y-84.301
X92.646Y-86.338
X92.649Y-53.299
X92.926Y-89.254
X93.117Y-48.635
X94.2Y-68.
X94.2Y-103.2
X94.704Y-73.457
X95.2Y-96.
X95.208Y-52.359
X96.8Y-77.2
X97.2Y-83.4
X97.487Y-58.115
X97.8Y-162.
X97.8Y-169.6
X98.2Y-72.8
X98.6Y-146.
X98.8Y-116.8
X99.4Y-127.8
X99.4Y-154.2
X99.6Y-104.6
X99.8Y-136.
X100.Y-60.8
X100.2Y-99.6
X100.4Y-86.
X100.6Y-54.8
X101.Y-79.4
X102.Y-69.4
X105.4Y-53.8
X107.Y-48.8
X107.Y-64.4
X107.8Y-81.2
X108.Y-96.8
X108.2Y-129.
X108.4Y-134.
X108.8Y-86.2
X109.6Y-44.2
T2
X84.9Y-31.8
X84.9Y-32.9
X84.9Y-34.
X84.9Y-35.1
X84.9Y-36.2
X86.Y-31.8
X86.Y-32.9
X86.Y-34.
X86.Y-35.1
X86.Y-36.2
X87.1Y-31.8
X87.1Y-32.9
X87.1Y-34.
X87.1Y-35.1
X87.1Y-36.2
X87.95Y-48.85
X87.95Y-49.95
X87.95Y-51.05
X87.95Y-52.15
X89.05Y-48.85
X89.05Y-49.95
X89.05Y-51.05
X89.05Y-52.15
T3
X62.15Y-25.595
X62.15Y-28.135
X62.15Y-41.595
X62.15Y-44.135
X62.15Y-57.595
X62.15Y-60.135
X62.15Y-73.595
X62.15Y-76.135
X62.15Y-89.595
X62.15Y-92.135
X62.15Y-105.595
X62.15Y-108.135
X62.15Y-121.595
X62.15Y-124.135
X62.15Y-137.595
X62.15Y-140.135
X62.15Y-153.595
X62.15Y-156.135
X62.15Y-169.595
X62.15Y-172.135
X62.152Y-30.675
X62.152Y-46.675
X62.152Y-62.675
X62.152Y-78.675
X62.152Y-94.675
X62.152Y-110.675
X62.152Y-126.675
X62.152Y-142.675
X62.152Y-158.675
X62.152Y-174.675
X64.69Y-26.865
X64.69Y-29.405
X64.69Y-42.865
X64.69Y-45.405
X64.69Y-58.865
X64.69Y-61.405
X64.69Y-74.865
X64.69Y-77.405
X64.69Y-90.865
X64.69Y-93.405
X64.69Y-106.865
X64.69Y-109.405
X64.69Y-122.865
X64.69Y-125.405
X64.69Y-138.865
X64.69Y-141.405
X64.69Y-154.865
X64.69Y-157.405
X64.69Y-170.865
X64.69Y-173.405
X64.692Y-24.325
X64.692Y-40.325
X64.692Y-56.325
X64.692Y-72.325
X64.692Y-88.325
X64.692Y-104.325
X64.692Y-120.325
X64.692Y-136.325
X64.692Y-152.325
X64.692Y-168.325
X68.23Y-45.5
X69.5Y-71.23
X69.5Y-73.77
X70.77Y-45.5
X76.5Y-71.23
X76.5Y-73.77
X83.23Y-111.5
X83.5Y-71.23
X83.5Y-73.77
X85.77Y-111.5
X91.5Y-65.5
X91.5Y-70.5
X98.23Y-45.5
X100.77Y-45.5
X104.307Y-30.675
X104.307Y-46.675
X104.307Y-62.675
X104.307Y-78.675
X104.307Y-94.675
X104.307Y-110.675
X104.307Y-126.675
X104.307Y-142.675
X104.307Y-158.675
X104.307Y-174.675
X104.31Y-25.595
X104.31Y-28.135
X104.31Y-41.595
X104.31Y-44.135
X104.31Y-57.595
X104.31Y-60.135
X104.31Y-73.595
X104.31Y-76.135
X104.31Y-89.595
X104.31Y-92.135
X104.31Y-105.595
X104.31Y-108.135
X104.31Y-121.595
X104.31Y-124.135
X104.31Y-137.595
X104.31Y-140.135
X104.31Y-153.595
X104.31Y-156.135
X104.31Y-169.595
X104.31Y-172.135
X106.847Y-24.325
X106.847Y-40.325
X106.847Y-56.325
X106.847Y-72.325
X106.847Y-88.325
X106.847Y-104.325
X106.847Y-120.325
X106.847Y-136.325
X106.847Y-152.325
X106.847Y-168.325
X106.85Y-26.865
X106.85Y-29.405
X106.85Y-42.865
X106.85Y-45.405
X106.85Y-58.865
X106.85Y-61.405
X106.85Y-74.865
X106.85Y-77.405
X106.85Y-90.865
X106.85Y-93.405
X106.85Y-106.865
X106.85Y-109.405
X106.85Y-122.865
X106.85Y-125.405
X106.85Y-138.865
X106.85Y-141.405
X106.85Y-154.865
X106.85Y-157.405
X106.85Y-170.865
X106.85Y-173.405
T4
X74.5Y-89.88
X74.5Y-92.42
X74.5Y-94.96
X74.5Y-97.5
X74.5Y-104.88
X74.5Y-107.42
X74.5Y-109.96
X74.5Y-112.5
X100.Y-89.92
X100.Y-92.46
X100.Y-95.
T5
X80.5Y-42.
X84.5Y-42.
X88.5Y-42.
X94.5Y-26.5
X94.5Y-31.5
X99.5Y-26.5
X99.5Y-31.5
T6
X76.25Y-42.
X92.75Y-42.
T7
X68.Y-30.
X72.5Y-25.5
X72.5Y-32.5
T8
X69.5Y-38.5
X69.5Y-112.
X69.5Y-176.5
X99.5Y-38.5
X99.5Y-112.
X99.5Y-176.5
T9
X55.8Y-21.75
X55.8Y-33.25
X55.8Y-37.75
X55.8Y-49.25
X55.8Y-53.75
X55.8Y-65.25
X55.8Y-69.75
X55.8Y-81.25
X55.8Y-85.75
X55.8Y-97.25
X55.8Y-101.75
X55.8Y-113.25
X55.8Y-117.75
X55.8Y-129.25
X55.8Y-133.75
X55.8Y-145.25
X55.8Y-149.75
X55.8Y-161.25
X55.8Y-165.75
X55.8Y-177.25
X113.2Y-21.75
X113.2Y-33.25
X113.2Y-37.75
X113.2Y-49.25
X113.2Y-53.75
X113.2Y-65.25
X113.2Y-69.75
X113.2Y-81.25
X113.2Y-85.75
X113.2Y-97.25
X113.2Y-101.75
X113.2Y-113.25
X113.2Y-117.75
X113.2Y-129.25
X113.2Y-133.75
X113.2Y-145.25
X113.2Y-149.75
X113.2Y-161.25
X113.2Y-165.75
X113.2Y-177.25
T0
M30
