G04 #@! TF.FileFunction,Soldermask,Bot*
%FSLAX46Y46*%
G04 Gerber Fmt 4.6, Leading zero omitted, Abs format (unit mm)*
G04 Created by KiCad (PCBNEW (after 2015-mar-04 BZR unknown)-product) date 25.04.2015 20:58:03*
%MOMM*%
G01*
G04 APERTURE LIST*
%ADD10C,0.100000*%
%ADD11R,1.700000X1.700000*%
%ADD12C,1.700000*%
%ADD13R,1.800000X1.800000*%
%ADD14C,1.800000*%
%ADD15C,6.200000*%
%ADD16C,4.600000*%
%ADD17C,1.600000*%
%ADD18R,1.600000X1.600000*%
%ADD19C,4.200000*%
%ADD20C,2.700000*%
%ADD21C,2.400000*%
%ADD22C,4.000000*%
G04 APERTURE END LIST*
D10*
D11*
X91500000Y-65500000D03*
D12*
X91500000Y-70500000D03*
D13*
X68230000Y-45500000D03*
D14*
X70770000Y-45500000D03*
D13*
X83500000Y-73770000D03*
D14*
X83500000Y-71230000D03*
D13*
X76500000Y-73770000D03*
D14*
X76500000Y-71230000D03*
D13*
X69500000Y-73770000D03*
D14*
X69500000Y-71230000D03*
D13*
X98230000Y-45500000D03*
D14*
X100770000Y-45500000D03*
D13*
X83230000Y-111500000D03*
D14*
X85770000Y-111500000D03*
D15*
X99500000Y-176500000D03*
X69500000Y-176500000D03*
X99500000Y-38500000D03*
X69500000Y-38500000D03*
D11*
X74500000Y-97500000D03*
D12*
X74500000Y-94960000D03*
X74500000Y-92420000D03*
X74500000Y-89880000D03*
D11*
X100000000Y-95000000D03*
D12*
X100000000Y-92460000D03*
X100000000Y-89920000D03*
D11*
X74500000Y-112500000D03*
D12*
X74500000Y-109960000D03*
X74500000Y-107420000D03*
X74500000Y-104880000D03*
D16*
X55800000Y-21750000D03*
X55800000Y-33250000D03*
D17*
X64689960Y-26865000D03*
X62149960Y-28135000D03*
X64689960Y-29405000D03*
X62149960Y-25595000D03*
D18*
X64692500Y-24325000D03*
D17*
X62152500Y-30675000D03*
D16*
X55800000Y-37750000D03*
X55800000Y-49250000D03*
D17*
X64689960Y-42865000D03*
X62149960Y-44135000D03*
X64689960Y-45405000D03*
X62149960Y-41595000D03*
D18*
X64692500Y-40325000D03*
D17*
X62152500Y-46675000D03*
D16*
X55800000Y-53750000D03*
X55800000Y-65250000D03*
D17*
X64689960Y-58865000D03*
X62149960Y-60135000D03*
X64689960Y-61405000D03*
X62149960Y-57595000D03*
D18*
X64692500Y-56325000D03*
D17*
X62152500Y-62675000D03*
D16*
X55800000Y-69750000D03*
X55800000Y-81250000D03*
D17*
X64689960Y-74865000D03*
X62149960Y-76135000D03*
X64689960Y-77405000D03*
X62149960Y-73595000D03*
D18*
X64692500Y-72325000D03*
D17*
X62152500Y-78675000D03*
D16*
X55800000Y-85750000D03*
X55800000Y-97250000D03*
D17*
X64689960Y-90865000D03*
X62149960Y-92135000D03*
X64689960Y-93405000D03*
X62149960Y-89595000D03*
D18*
X64692500Y-88325000D03*
D17*
X62152500Y-94675000D03*
D19*
X72500000Y-25500000D03*
X68000000Y-30000000D03*
X72500000Y-32500000D03*
D20*
X99500000Y-31500000D03*
X99500000Y-26500000D03*
X94500000Y-26500000D03*
X94500000Y-31500000D03*
D16*
X55800000Y-101750000D03*
X55800000Y-113250000D03*
D17*
X64689960Y-106865000D03*
X62149960Y-108135000D03*
X64689960Y-109405000D03*
X62149960Y-105595000D03*
D18*
X64692500Y-104325000D03*
D17*
X62152500Y-110675000D03*
D16*
X55800000Y-117750000D03*
X55800000Y-129250000D03*
D17*
X64689960Y-122865000D03*
X62149960Y-124135000D03*
X64689960Y-125405000D03*
X62149960Y-121595000D03*
D18*
X64692500Y-120325000D03*
D17*
X62152500Y-126675000D03*
D16*
X55800000Y-133750000D03*
X55800000Y-145250000D03*
D17*
X64689960Y-138865000D03*
X62149960Y-140135000D03*
X64689960Y-141405000D03*
X62149960Y-137595000D03*
D18*
X64692500Y-136325000D03*
D17*
X62152500Y-142675000D03*
D16*
X55800000Y-149750000D03*
X55800000Y-161250000D03*
D17*
X64689960Y-154865000D03*
X62149960Y-156135000D03*
X64689960Y-157405000D03*
X62149960Y-153595000D03*
D18*
X64692500Y-152325000D03*
D17*
X62152500Y-158675000D03*
D16*
X55800000Y-165750000D03*
X55800000Y-177250000D03*
D17*
X64689960Y-170865000D03*
X62149960Y-172135000D03*
X64689960Y-173405000D03*
X62149960Y-169595000D03*
D18*
X64692500Y-168325000D03*
D17*
X62152500Y-174675000D03*
D16*
X113200000Y-33250000D03*
X113200000Y-21750000D03*
D17*
X104310040Y-28135000D03*
X106850040Y-26865000D03*
X104310040Y-25595000D03*
X106850040Y-29405000D03*
D18*
X104307500Y-30675000D03*
D17*
X106847500Y-24325000D03*
D16*
X113200000Y-49250000D03*
X113200000Y-37750000D03*
D17*
X104310040Y-44135000D03*
X106850040Y-42865000D03*
X104310040Y-41595000D03*
X106850040Y-45405000D03*
D18*
X104307500Y-46675000D03*
D17*
X106847500Y-40325000D03*
D16*
X113200000Y-65250000D03*
X113200000Y-53750000D03*
D17*
X104310040Y-60135000D03*
X106850040Y-58865000D03*
X104310040Y-57595000D03*
X106850040Y-61405000D03*
D18*
X104307500Y-62675000D03*
D17*
X106847500Y-56325000D03*
D16*
X113200000Y-81250000D03*
X113200000Y-69750000D03*
D17*
X104310040Y-76135000D03*
X106850040Y-74865000D03*
X104310040Y-73595000D03*
X106850040Y-77405000D03*
D18*
X104307500Y-78675000D03*
D17*
X106847500Y-72325000D03*
D16*
X113200000Y-97250000D03*
X113200000Y-85750000D03*
D17*
X104310040Y-92135000D03*
X106850040Y-90865000D03*
X104310040Y-89595000D03*
X106850040Y-93405000D03*
D18*
X104307500Y-94675000D03*
D17*
X106847500Y-88325000D03*
D16*
X113200000Y-113250000D03*
X113200000Y-101750000D03*
D17*
X104310040Y-108135000D03*
X106850040Y-106865000D03*
X104310040Y-105595000D03*
X106850040Y-109405000D03*
D18*
X104307500Y-110675000D03*
D17*
X106847500Y-104325000D03*
D16*
X113200000Y-129250000D03*
X113200000Y-117750000D03*
D17*
X104310040Y-124135000D03*
X106850040Y-122865000D03*
X104310040Y-121595000D03*
X106850040Y-125405000D03*
D18*
X104307500Y-126675000D03*
D17*
X106847500Y-120325000D03*
D16*
X113200000Y-145250000D03*
X113200000Y-133750000D03*
D17*
X104310040Y-140135000D03*
X106850040Y-138865000D03*
X104310040Y-137595000D03*
X106850040Y-141405000D03*
D18*
X104307500Y-142675000D03*
D17*
X106847500Y-136325000D03*
D16*
X113200000Y-161250000D03*
X113200000Y-149750000D03*
D17*
X104310040Y-156135000D03*
X106850040Y-154865000D03*
X104310040Y-153595000D03*
X106850040Y-157405000D03*
D18*
X104307500Y-158675000D03*
D17*
X106847500Y-152325000D03*
D16*
X113200000Y-177250000D03*
X113200000Y-165750000D03*
D17*
X104310040Y-172135000D03*
X106850040Y-170865000D03*
X104310040Y-169595000D03*
X106850040Y-173405000D03*
D18*
X104307500Y-174675000D03*
D17*
X106847500Y-168325000D03*
D21*
X80500000Y-42000000D03*
X84500000Y-42000000D03*
X88500000Y-42000000D03*
D22*
X76250000Y-42000000D03*
X92750000Y-42000000D03*
D15*
X99500000Y-112000000D03*
X69500000Y-112000000D03*
M02*
