G04 #@! TF.FileFunction,Copper,L2,Bot,Signal*
%FSLAX46Y46*%
G04 Gerber Fmt 4.6, Leading zero omitted, Abs format (unit mm)*
G04 Created by KiCad (PCBNEW (after 2015-mar-04 BZR unknown)-product) date 25.04.2015 22:10:00*
%MOMM*%
G01*
G04 APERTURE LIST*
%ADD10C,0.100000*%
%ADD11R,1.676400X1.676400*%
%ADD12C,1.676400*%
%ADD13R,1.600000X1.600000*%
%ADD14C,1.600000*%
%ADD15C,4.400000*%
%ADD16C,1.400000*%
%ADD17R,1.400000X1.400000*%
%ADD18C,0.900000*%
%ADD19C,0.500000*%
%ADD20C,0.254000*%
G04 APERTURE END LIST*
D10*
D11*
X171600000Y-89930000D03*
D12*
X171600000Y-92470000D03*
D13*
X178000000Y-93770000D03*
D14*
X178000000Y-91230000D03*
D15*
X158300000Y-86750000D03*
X158300000Y-98250000D03*
D16*
X167189960Y-91865000D03*
X164649960Y-93135000D03*
X167189960Y-94405000D03*
X164649960Y-90595000D03*
D17*
X167192500Y-89325000D03*
D16*
X164652500Y-95675000D03*
X182500000Y-92500000D03*
X182500000Y-89960000D03*
D17*
X182500000Y-95040000D03*
D18*
X174693900Y-96009300D03*
X169465800Y-97200000D03*
X177334200Y-97200000D03*
D19*
X172147400Y-93858300D02*
X167190000Y-94405000D01*
X172194600Y-93838800D02*
X172147400Y-93858300D01*
X178000000Y-91230000D02*
X172194600Y-93838800D01*
X181696400Y-95490000D02*
X174693900Y-96009300D01*
X181800000Y-95490000D02*
X181696400Y-95490000D01*
X182050000Y-95490000D02*
X181800000Y-95490000D01*
X182500000Y-95040000D02*
X182050000Y-95490000D01*
X169465800Y-97200000D02*
X177334200Y-97200000D01*
D20*
G36*
X183248000Y-100348000D02*
X168319388Y-100348000D01*
X168319388Y-94322277D01*
X168281548Y-94103526D01*
X168271324Y-94076980D01*
X168271324Y-90025000D01*
X168271324Y-88625000D01*
X168266352Y-88563823D01*
X168234607Y-88462301D01*
X168175889Y-88373607D01*
X168094828Y-88304733D01*
X167997816Y-88261109D01*
X167892500Y-88246176D01*
X166492500Y-88246176D01*
X166431323Y-88251148D01*
X166329801Y-88282893D01*
X166241107Y-88341611D01*
X166172233Y-88422672D01*
X166128609Y-88519684D01*
X166113676Y-88625000D01*
X166113676Y-90025000D01*
X166118648Y-90086177D01*
X166150393Y-90187699D01*
X166209111Y-90276393D01*
X166290172Y-90345267D01*
X166387184Y-90388891D01*
X166492500Y-90403824D01*
X167892500Y-90403824D01*
X167953677Y-90398852D01*
X168055199Y-90367107D01*
X168143893Y-90308389D01*
X168212767Y-90227328D01*
X168256391Y-90130316D01*
X168271324Y-90025000D01*
X168271324Y-94076980D01*
X168267006Y-94065769D01*
X168267006Y-91759395D01*
X168225982Y-91552207D01*
X168145496Y-91356933D01*
X168028613Y-91181011D01*
X167879787Y-91031142D01*
X167704686Y-90913035D01*
X167509979Y-90831187D01*
X167303082Y-90788717D01*
X167091876Y-90787243D01*
X166884407Y-90826820D01*
X166688576Y-90905941D01*
X166511842Y-91021592D01*
X166360938Y-91169368D01*
X166241611Y-91343641D01*
X166158407Y-91537772D01*
X166114493Y-91744367D01*
X166111544Y-91955557D01*
X166149672Y-92163298D01*
X166227424Y-92359676D01*
X166341838Y-92537213D01*
X166488558Y-92689145D01*
X166661993Y-92809686D01*
X166855538Y-92894244D01*
X167061822Y-92939598D01*
X167272986Y-92944021D01*
X167480988Y-92907345D01*
X167677905Y-92830966D01*
X167856236Y-92717794D01*
X168009188Y-92572139D01*
X168130937Y-92399549D01*
X168216844Y-92206599D01*
X168263637Y-92000637D01*
X168267006Y-91759395D01*
X168267006Y-94065769D01*
X168201758Y-93896360D01*
X168175003Y-93846306D01*
X167999463Y-93775102D01*
X167819858Y-93954707D01*
X167819858Y-93595497D01*
X167748654Y-93419957D01*
X167545747Y-93329889D01*
X167329167Y-93281136D01*
X167107237Y-93275572D01*
X166888486Y-93313412D01*
X166681320Y-93393202D01*
X166631266Y-93419957D01*
X166560062Y-93595497D01*
X167189960Y-94225395D01*
X167819858Y-93595497D01*
X167819858Y-93954707D01*
X167369565Y-94405000D01*
X167999463Y-95034898D01*
X168175003Y-94963694D01*
X168265071Y-94760787D01*
X168313824Y-94544207D01*
X168319388Y-94322277D01*
X168319388Y-100348000D01*
X167819858Y-100348000D01*
X167819858Y-95214503D01*
X167189960Y-94584605D01*
X167010355Y-94764210D01*
X167010355Y-94405000D01*
X166380457Y-93775102D01*
X166204917Y-93846306D01*
X166114849Y-94049213D01*
X166066096Y-94265793D01*
X166060532Y-94487723D01*
X166098372Y-94706474D01*
X166178162Y-94913640D01*
X166204917Y-94963694D01*
X166380457Y-95034898D01*
X167010355Y-94405000D01*
X167010355Y-94764210D01*
X166560062Y-95214503D01*
X166631266Y-95390043D01*
X166834173Y-95480111D01*
X167050753Y-95528864D01*
X167272683Y-95534428D01*
X167491434Y-95496588D01*
X167698600Y-95416798D01*
X167748654Y-95390043D01*
X167819858Y-95214503D01*
X167819858Y-100348000D01*
X165779388Y-100348000D01*
X165779388Y-93052277D01*
X165741548Y-92833526D01*
X165727006Y-92795769D01*
X165727006Y-90489395D01*
X165685982Y-90282207D01*
X165605496Y-90086933D01*
X165488613Y-89911011D01*
X165339787Y-89761142D01*
X165164686Y-89643035D01*
X164969979Y-89561187D01*
X164763082Y-89518717D01*
X164551876Y-89517243D01*
X164344407Y-89556820D01*
X164148576Y-89635941D01*
X163971842Y-89751592D01*
X163820938Y-89899368D01*
X163701611Y-90073641D01*
X163618407Y-90267772D01*
X163574493Y-90474367D01*
X163571544Y-90685557D01*
X163609672Y-90893298D01*
X163687424Y-91089676D01*
X163801838Y-91267213D01*
X163948558Y-91419145D01*
X164121993Y-91539686D01*
X164315538Y-91624244D01*
X164521822Y-91669598D01*
X164732986Y-91674021D01*
X164940988Y-91637345D01*
X165137905Y-91560966D01*
X165316236Y-91447794D01*
X165469188Y-91302139D01*
X165590937Y-91129549D01*
X165676844Y-90936599D01*
X165723637Y-90730637D01*
X165727006Y-90489395D01*
X165727006Y-92795769D01*
X165661758Y-92626360D01*
X165635003Y-92576306D01*
X165459463Y-92505102D01*
X165279858Y-92684707D01*
X165279858Y-92325497D01*
X165208654Y-92149957D01*
X165005747Y-92059889D01*
X164789167Y-92011136D01*
X164567237Y-92005572D01*
X164348486Y-92043412D01*
X164141320Y-92123202D01*
X164091266Y-92149957D01*
X164020062Y-92325497D01*
X164649960Y-92955395D01*
X165279858Y-92325497D01*
X165279858Y-92684707D01*
X164829565Y-93135000D01*
X165459463Y-93764898D01*
X165635003Y-93693694D01*
X165725071Y-93490787D01*
X165773824Y-93274207D01*
X165779388Y-93052277D01*
X165779388Y-100348000D01*
X165729546Y-100348000D01*
X165729546Y-95569395D01*
X165688522Y-95362207D01*
X165608036Y-95166933D01*
X165491153Y-94991011D01*
X165342327Y-94841142D01*
X165279858Y-94799006D01*
X165279858Y-93944503D01*
X164649960Y-93314605D01*
X164470355Y-93494210D01*
X164470355Y-93135000D01*
X163840457Y-92505102D01*
X163664917Y-92576306D01*
X163574849Y-92779213D01*
X163526096Y-92995793D01*
X163520532Y-93217723D01*
X163558372Y-93436474D01*
X163638162Y-93643640D01*
X163664917Y-93693694D01*
X163840457Y-93764898D01*
X164470355Y-93135000D01*
X164470355Y-93494210D01*
X164020062Y-93944503D01*
X164091266Y-94120043D01*
X164294173Y-94210111D01*
X164510753Y-94258864D01*
X164732683Y-94264428D01*
X164951434Y-94226588D01*
X165158600Y-94146798D01*
X165208654Y-94120043D01*
X165279858Y-93944503D01*
X165279858Y-94799006D01*
X165167226Y-94723035D01*
X164972519Y-94641187D01*
X164765622Y-94598717D01*
X164554416Y-94597243D01*
X164346947Y-94636820D01*
X164151116Y-94715941D01*
X163974382Y-94831592D01*
X163823478Y-94979368D01*
X163704151Y-95153641D01*
X163620947Y-95347772D01*
X163577033Y-95554367D01*
X163574084Y-95765557D01*
X163612212Y-95973298D01*
X163689964Y-96169676D01*
X163804378Y-96347213D01*
X163951098Y-96499145D01*
X164124533Y-96619686D01*
X164318078Y-96704244D01*
X164524362Y-96749598D01*
X164735526Y-96754021D01*
X164943528Y-96717345D01*
X165140445Y-96640966D01*
X165318776Y-96527794D01*
X165471728Y-96382139D01*
X165593477Y-96209549D01*
X165679384Y-96016599D01*
X165726177Y-95810637D01*
X165729546Y-95569395D01*
X165729546Y-100348000D01*
X160939607Y-100348000D01*
X160939607Y-98226613D01*
X160939607Y-86726613D01*
X160884325Y-86212101D01*
X160729730Y-85718260D01*
X160507746Y-85302959D01*
X160178624Y-85050982D01*
X158479605Y-86750000D01*
X160178624Y-88449018D01*
X160507746Y-88197041D01*
X160747629Y-87738527D01*
X160893451Y-87242024D01*
X160939607Y-86726613D01*
X160939607Y-98226613D01*
X160884325Y-97712101D01*
X160729730Y-97218260D01*
X160507746Y-96802959D01*
X160178624Y-96550982D01*
X159999018Y-96730587D01*
X159999018Y-96371376D01*
X159999018Y-88628624D01*
X158300000Y-86929605D01*
X156600982Y-88628624D01*
X156852959Y-88957746D01*
X157311473Y-89197629D01*
X157807976Y-89343451D01*
X158323387Y-89389607D01*
X158837899Y-89334325D01*
X159331740Y-89179730D01*
X159747041Y-88957746D01*
X159999018Y-88628624D01*
X159999018Y-96371376D01*
X159747041Y-96042254D01*
X159288527Y-95802371D01*
X158792024Y-95656549D01*
X158276613Y-95610393D01*
X157762101Y-95665675D01*
X157268260Y-95820270D01*
X156852959Y-96042254D01*
X156600982Y-96371376D01*
X158300000Y-98070395D01*
X159999018Y-96371376D01*
X159999018Y-96730587D01*
X158479605Y-98250000D01*
X160178624Y-99949018D01*
X160507746Y-99697041D01*
X160747629Y-99238527D01*
X160893451Y-98742024D01*
X160939607Y-98226613D01*
X160939607Y-100348000D01*
X159831062Y-100348000D01*
X159999018Y-100128624D01*
X158300000Y-98429605D01*
X156600982Y-100128624D01*
X156768937Y-100348000D01*
X156152000Y-100348000D01*
X156152000Y-99742782D01*
X156421376Y-99949018D01*
X158120395Y-98250000D01*
X156421376Y-96550982D01*
X156152000Y-96757217D01*
X156152000Y-88242782D01*
X156421376Y-88449018D01*
X158120395Y-86750000D01*
X156421376Y-85050982D01*
X156152000Y-85257217D01*
X156152000Y-84652000D01*
X156768937Y-84652000D01*
X156600982Y-84871376D01*
X158300000Y-86570395D01*
X159999018Y-84871376D01*
X159831062Y-84652000D01*
X183248000Y-84652000D01*
X183248000Y-89184722D01*
X183189827Y-89126142D01*
X183014726Y-89008035D01*
X182820019Y-88926187D01*
X182613122Y-88883717D01*
X182401916Y-88882243D01*
X182194447Y-88921820D01*
X181998616Y-89000941D01*
X181821882Y-89116592D01*
X181670978Y-89264368D01*
X181551651Y-89438641D01*
X181468447Y-89632772D01*
X181424533Y-89839367D01*
X181421584Y-90050557D01*
X181459712Y-90258298D01*
X181537464Y-90454676D01*
X181651878Y-90632213D01*
X181798598Y-90784145D01*
X181972033Y-90904686D01*
X182165578Y-90989244D01*
X182371862Y-91034598D01*
X182583026Y-91039021D01*
X182791028Y-91002345D01*
X182987945Y-90925966D01*
X183166276Y-90812794D01*
X183248000Y-90734968D01*
X183248000Y-91647338D01*
X183210527Y-91609865D01*
X183129897Y-91690494D01*
X183058694Y-91514957D01*
X182855787Y-91424889D01*
X182639207Y-91376136D01*
X182417277Y-91370572D01*
X182198526Y-91408412D01*
X181991360Y-91488202D01*
X181941306Y-91514957D01*
X181870102Y-91690497D01*
X182500000Y-92320395D01*
X182514142Y-92306252D01*
X182693747Y-92485857D01*
X182679605Y-92500000D01*
X182693747Y-92514142D01*
X182514142Y-92693747D01*
X182500000Y-92679605D01*
X182320395Y-92859210D01*
X182320395Y-92500000D01*
X181690497Y-91870102D01*
X181514957Y-91941306D01*
X181424889Y-92144213D01*
X181376136Y-92360793D01*
X181370572Y-92582723D01*
X181408412Y-92801474D01*
X181488202Y-93008640D01*
X181514957Y-93058694D01*
X181690497Y-93129898D01*
X182320395Y-92500000D01*
X182320395Y-92859210D01*
X181870102Y-93309503D01*
X181941306Y-93485043D01*
X182144213Y-93575111D01*
X182360793Y-93623864D01*
X182582723Y-93629428D01*
X182801474Y-93591588D01*
X183008640Y-93511798D01*
X183058694Y-93485043D01*
X183129897Y-93309505D01*
X183129898Y-93309506D01*
X183210527Y-93390135D01*
X183248000Y-93352662D01*
X183248000Y-93967982D01*
X183200000Y-93961176D01*
X183129898Y-93961176D01*
X181800000Y-93961176D01*
X181738823Y-93966148D01*
X181637301Y-93997893D01*
X181548607Y-94056611D01*
X181479733Y-94137672D01*
X181436109Y-94234684D01*
X181421176Y-94340000D01*
X181421176Y-94881688D01*
X179230419Y-95044152D01*
X179230419Y-91151245D01*
X179191412Y-90912715D01*
X179106620Y-90686378D01*
X179066810Y-90611897D01*
X178881057Y-90528548D01*
X178701452Y-90708153D01*
X178701452Y-90348943D01*
X178618103Y-90163190D01*
X178398101Y-90063103D01*
X178162801Y-90007859D01*
X177921245Y-89999581D01*
X177682715Y-90038588D01*
X177456378Y-90123380D01*
X177381897Y-90163190D01*
X177298548Y-90348943D01*
X178000000Y-91050395D01*
X178701452Y-90348943D01*
X178701452Y-90708153D01*
X178179605Y-91230000D01*
X178881057Y-91931452D01*
X179066810Y-91848103D01*
X179166897Y-91628101D01*
X179222141Y-91392801D01*
X179230419Y-91151245D01*
X179230419Y-95044152D01*
X179178824Y-95047979D01*
X179178824Y-94570000D01*
X179178824Y-92970000D01*
X179173852Y-92908823D01*
X179142107Y-92807301D01*
X179083389Y-92718607D01*
X179002328Y-92649733D01*
X178905316Y-92606109D01*
X178800000Y-92591176D01*
X178701452Y-92591176D01*
X178701452Y-92111057D01*
X178000000Y-91409605D01*
X177820395Y-91589210D01*
X177820395Y-91230000D01*
X177118943Y-90528548D01*
X176933190Y-90611897D01*
X176833103Y-90831899D01*
X176777859Y-91067199D01*
X176769581Y-91308755D01*
X176808588Y-91547285D01*
X176893380Y-91773622D01*
X176933190Y-91848103D01*
X177118943Y-91931452D01*
X177820395Y-91230000D01*
X177820395Y-91589210D01*
X177298548Y-92111057D01*
X177381897Y-92296810D01*
X177601899Y-92396897D01*
X177837199Y-92452141D01*
X178078755Y-92460419D01*
X178317285Y-92421412D01*
X178543622Y-92336620D01*
X178618103Y-92296810D01*
X178701452Y-92111057D01*
X178701452Y-92591176D01*
X177200000Y-92591176D01*
X177138823Y-92596148D01*
X177037301Y-92627893D01*
X176948607Y-92686611D01*
X176879733Y-92767672D01*
X176836109Y-92864684D01*
X176821176Y-92970000D01*
X176821176Y-94570000D01*
X176826148Y-94631177D01*
X176857893Y-94732699D01*
X176916611Y-94821393D01*
X176997672Y-94890267D01*
X177094684Y-94933891D01*
X177200000Y-94948824D01*
X178800000Y-94948824D01*
X178861177Y-94943852D01*
X178962699Y-94912107D01*
X179051393Y-94853389D01*
X179120267Y-94772328D01*
X179163891Y-94675316D01*
X179178824Y-94570000D01*
X179178824Y-95047979D01*
X175186591Y-95344040D01*
X175089144Y-95278311D01*
X174939634Y-95215463D01*
X174780763Y-95182851D01*
X174618584Y-95181719D01*
X174459274Y-95212109D01*
X174308901Y-95272864D01*
X174173192Y-95361669D01*
X174057316Y-95475143D01*
X173965688Y-95608962D01*
X173901798Y-95758030D01*
X173868078Y-95916669D01*
X173865813Y-96078836D01*
X173895091Y-96238355D01*
X173954794Y-96389149D01*
X174042650Y-96525474D01*
X174088545Y-96573000D01*
X172817024Y-96573000D01*
X172817024Y-90768200D01*
X172817024Y-89091800D01*
X172812052Y-89030623D01*
X172780307Y-88929101D01*
X172721589Y-88840407D01*
X172640528Y-88771533D01*
X172543516Y-88727909D01*
X172438200Y-88712976D01*
X170761800Y-88712976D01*
X170700623Y-88717948D01*
X170599101Y-88749693D01*
X170510407Y-88808411D01*
X170441533Y-88889472D01*
X170397909Y-88986484D01*
X170382976Y-89091800D01*
X170382976Y-90768200D01*
X170387948Y-90829377D01*
X170419693Y-90930899D01*
X170478411Y-91019593D01*
X170559472Y-91088467D01*
X170656484Y-91132091D01*
X170761800Y-91147024D01*
X172438200Y-91147024D01*
X172499377Y-91142052D01*
X172600899Y-91110307D01*
X172689593Y-91051589D01*
X172758467Y-90970528D01*
X172802091Y-90873516D01*
X172817024Y-90768200D01*
X172817024Y-96573000D01*
X172815252Y-96573000D01*
X172815252Y-92350843D01*
X172768964Y-92117069D01*
X172678150Y-91896738D01*
X172546269Y-91698242D01*
X172378346Y-91529142D01*
X172180775Y-91395879D01*
X171961083Y-91303529D01*
X171727638Y-91255609D01*
X171489330Y-91253945D01*
X171255238Y-91298601D01*
X171034278Y-91387875D01*
X170834867Y-91518366D01*
X170664598Y-91685105D01*
X170529959Y-91881740D01*
X170436078Y-92100782D01*
X170386530Y-92333888D01*
X170383202Y-92572177D01*
X170426223Y-92806575D01*
X170513951Y-93028153D01*
X170643048Y-93228471D01*
X170808594Y-93399899D01*
X171004284Y-93535908D01*
X171222666Y-93631316D01*
X171455419Y-93682490D01*
X171693680Y-93687481D01*
X171928373Y-93646099D01*
X172150558Y-93559919D01*
X172351772Y-93432224D01*
X172524352Y-93267879D01*
X172661723Y-93073143D01*
X172758654Y-92855433D01*
X172811451Y-92623042D01*
X172815252Y-92350843D01*
X172815252Y-96573000D01*
X170008704Y-96573000D01*
X169995500Y-96559703D01*
X169861044Y-96469011D01*
X169711534Y-96406163D01*
X169552663Y-96373551D01*
X169390484Y-96372419D01*
X169231174Y-96402809D01*
X169080801Y-96463564D01*
X168945092Y-96552369D01*
X168829216Y-96665843D01*
X168737588Y-96799662D01*
X168673698Y-96948730D01*
X168639978Y-97107369D01*
X168637713Y-97269536D01*
X168666991Y-97429055D01*
X168726694Y-97579849D01*
X168814550Y-97716174D01*
X168927212Y-97832839D01*
X169060388Y-97925399D01*
X169209007Y-97990329D01*
X169367406Y-98025155D01*
X169529554Y-98028552D01*
X169689273Y-98000389D01*
X169840480Y-97941740D01*
X169977415Y-97854838D01*
X170006647Y-97827000D01*
X176789973Y-97827000D01*
X176795612Y-97832839D01*
X176928788Y-97925399D01*
X177077407Y-97990329D01*
X177235806Y-98025155D01*
X177397954Y-98028552D01*
X177557673Y-98000389D01*
X177708880Y-97941740D01*
X177845815Y-97854838D01*
X177963264Y-97742993D01*
X178056751Y-97610466D01*
X178122717Y-97462305D01*
X178158648Y-97304152D01*
X178161235Y-97118909D01*
X178129733Y-96959814D01*
X178067930Y-96809869D01*
X177978180Y-96674783D01*
X177863900Y-96559703D01*
X177729444Y-96469011D01*
X177615994Y-96421321D01*
X181719617Y-96117000D01*
X181787136Y-96117000D01*
X181800000Y-96118824D01*
X183200000Y-96118824D01*
X183248000Y-96114922D01*
X183248000Y-100348000D01*
X183248000Y-100348000D01*
G37*
X183248000Y-100348000D02*
X168319388Y-100348000D01*
X168319388Y-94322277D01*
X168281548Y-94103526D01*
X168271324Y-94076980D01*
X168271324Y-90025000D01*
X168271324Y-88625000D01*
X168266352Y-88563823D01*
X168234607Y-88462301D01*
X168175889Y-88373607D01*
X168094828Y-88304733D01*
X167997816Y-88261109D01*
X167892500Y-88246176D01*
X166492500Y-88246176D01*
X166431323Y-88251148D01*
X166329801Y-88282893D01*
X166241107Y-88341611D01*
X166172233Y-88422672D01*
X166128609Y-88519684D01*
X166113676Y-88625000D01*
X166113676Y-90025000D01*
X166118648Y-90086177D01*
X166150393Y-90187699D01*
X166209111Y-90276393D01*
X166290172Y-90345267D01*
X166387184Y-90388891D01*
X166492500Y-90403824D01*
X167892500Y-90403824D01*
X167953677Y-90398852D01*
X168055199Y-90367107D01*
X168143893Y-90308389D01*
X168212767Y-90227328D01*
X168256391Y-90130316D01*
X168271324Y-90025000D01*
X168271324Y-94076980D01*
X168267006Y-94065769D01*
X168267006Y-91759395D01*
X168225982Y-91552207D01*
X168145496Y-91356933D01*
X168028613Y-91181011D01*
X167879787Y-91031142D01*
X167704686Y-90913035D01*
X167509979Y-90831187D01*
X167303082Y-90788717D01*
X167091876Y-90787243D01*
X166884407Y-90826820D01*
X166688576Y-90905941D01*
X166511842Y-91021592D01*
X166360938Y-91169368D01*
X166241611Y-91343641D01*
X166158407Y-91537772D01*
X166114493Y-91744367D01*
X166111544Y-91955557D01*
X166149672Y-92163298D01*
X166227424Y-92359676D01*
X166341838Y-92537213D01*
X166488558Y-92689145D01*
X166661993Y-92809686D01*
X166855538Y-92894244D01*
X167061822Y-92939598D01*
X167272986Y-92944021D01*
X167480988Y-92907345D01*
X167677905Y-92830966D01*
X167856236Y-92717794D01*
X168009188Y-92572139D01*
X168130937Y-92399549D01*
X168216844Y-92206599D01*
X168263637Y-92000637D01*
X168267006Y-91759395D01*
X168267006Y-94065769D01*
X168201758Y-93896360D01*
X168175003Y-93846306D01*
X167999463Y-93775102D01*
X167819858Y-93954707D01*
X167819858Y-93595497D01*
X167748654Y-93419957D01*
X167545747Y-93329889D01*
X167329167Y-93281136D01*
X167107237Y-93275572D01*
X166888486Y-93313412D01*
X166681320Y-93393202D01*
X166631266Y-93419957D01*
X166560062Y-93595497D01*
X167189960Y-94225395D01*
X167819858Y-93595497D01*
X167819858Y-93954707D01*
X167369565Y-94405000D01*
X167999463Y-95034898D01*
X168175003Y-94963694D01*
X168265071Y-94760787D01*
X168313824Y-94544207D01*
X168319388Y-94322277D01*
X168319388Y-100348000D01*
X167819858Y-100348000D01*
X167819858Y-95214503D01*
X167189960Y-94584605D01*
X167010355Y-94764210D01*
X167010355Y-94405000D01*
X166380457Y-93775102D01*
X166204917Y-93846306D01*
X166114849Y-94049213D01*
X166066096Y-94265793D01*
X166060532Y-94487723D01*
X166098372Y-94706474D01*
X166178162Y-94913640D01*
X166204917Y-94963694D01*
X166380457Y-95034898D01*
X167010355Y-94405000D01*
X167010355Y-94764210D01*
X166560062Y-95214503D01*
X166631266Y-95390043D01*
X166834173Y-95480111D01*
X167050753Y-95528864D01*
X167272683Y-95534428D01*
X167491434Y-95496588D01*
X167698600Y-95416798D01*
X167748654Y-95390043D01*
X167819858Y-95214503D01*
X167819858Y-100348000D01*
X165779388Y-100348000D01*
X165779388Y-93052277D01*
X165741548Y-92833526D01*
X165727006Y-92795769D01*
X165727006Y-90489395D01*
X165685982Y-90282207D01*
X165605496Y-90086933D01*
X165488613Y-89911011D01*
X165339787Y-89761142D01*
X165164686Y-89643035D01*
X164969979Y-89561187D01*
X164763082Y-89518717D01*
X164551876Y-89517243D01*
X164344407Y-89556820D01*
X164148576Y-89635941D01*
X163971842Y-89751592D01*
X163820938Y-89899368D01*
X163701611Y-90073641D01*
X163618407Y-90267772D01*
X163574493Y-90474367D01*
X163571544Y-90685557D01*
X163609672Y-90893298D01*
X163687424Y-91089676D01*
X163801838Y-91267213D01*
X163948558Y-91419145D01*
X164121993Y-91539686D01*
X164315538Y-91624244D01*
X164521822Y-91669598D01*
X164732986Y-91674021D01*
X164940988Y-91637345D01*
X165137905Y-91560966D01*
X165316236Y-91447794D01*
X165469188Y-91302139D01*
X165590937Y-91129549D01*
X165676844Y-90936599D01*
X165723637Y-90730637D01*
X165727006Y-90489395D01*
X165727006Y-92795769D01*
X165661758Y-92626360D01*
X165635003Y-92576306D01*
X165459463Y-92505102D01*
X165279858Y-92684707D01*
X165279858Y-92325497D01*
X165208654Y-92149957D01*
X165005747Y-92059889D01*
X164789167Y-92011136D01*
X164567237Y-92005572D01*
X164348486Y-92043412D01*
X164141320Y-92123202D01*
X164091266Y-92149957D01*
X164020062Y-92325497D01*
X164649960Y-92955395D01*
X165279858Y-92325497D01*
X165279858Y-92684707D01*
X164829565Y-93135000D01*
X165459463Y-93764898D01*
X165635003Y-93693694D01*
X165725071Y-93490787D01*
X165773824Y-93274207D01*
X165779388Y-93052277D01*
X165779388Y-100348000D01*
X165729546Y-100348000D01*
X165729546Y-95569395D01*
X165688522Y-95362207D01*
X165608036Y-95166933D01*
X165491153Y-94991011D01*
X165342327Y-94841142D01*
X165279858Y-94799006D01*
X165279858Y-93944503D01*
X164649960Y-93314605D01*
X164470355Y-93494210D01*
X164470355Y-93135000D01*
X163840457Y-92505102D01*
X163664917Y-92576306D01*
X163574849Y-92779213D01*
X163526096Y-92995793D01*
X163520532Y-93217723D01*
X163558372Y-93436474D01*
X163638162Y-93643640D01*
X163664917Y-93693694D01*
X163840457Y-93764898D01*
X164470355Y-93135000D01*
X164470355Y-93494210D01*
X164020062Y-93944503D01*
X164091266Y-94120043D01*
X164294173Y-94210111D01*
X164510753Y-94258864D01*
X164732683Y-94264428D01*
X164951434Y-94226588D01*
X165158600Y-94146798D01*
X165208654Y-94120043D01*
X165279858Y-93944503D01*
X165279858Y-94799006D01*
X165167226Y-94723035D01*
X164972519Y-94641187D01*
X164765622Y-94598717D01*
X164554416Y-94597243D01*
X164346947Y-94636820D01*
X164151116Y-94715941D01*
X163974382Y-94831592D01*
X163823478Y-94979368D01*
X163704151Y-95153641D01*
X163620947Y-95347772D01*
X163577033Y-95554367D01*
X163574084Y-95765557D01*
X163612212Y-95973298D01*
X163689964Y-96169676D01*
X163804378Y-96347213D01*
X163951098Y-96499145D01*
X164124533Y-96619686D01*
X164318078Y-96704244D01*
X164524362Y-96749598D01*
X164735526Y-96754021D01*
X164943528Y-96717345D01*
X165140445Y-96640966D01*
X165318776Y-96527794D01*
X165471728Y-96382139D01*
X165593477Y-96209549D01*
X165679384Y-96016599D01*
X165726177Y-95810637D01*
X165729546Y-95569395D01*
X165729546Y-100348000D01*
X160939607Y-100348000D01*
X160939607Y-98226613D01*
X160939607Y-86726613D01*
X160884325Y-86212101D01*
X160729730Y-85718260D01*
X160507746Y-85302959D01*
X160178624Y-85050982D01*
X158479605Y-86750000D01*
X160178624Y-88449018D01*
X160507746Y-88197041D01*
X160747629Y-87738527D01*
X160893451Y-87242024D01*
X160939607Y-86726613D01*
X160939607Y-98226613D01*
X160884325Y-97712101D01*
X160729730Y-97218260D01*
X160507746Y-96802959D01*
X160178624Y-96550982D01*
X159999018Y-96730587D01*
X159999018Y-96371376D01*
X159999018Y-88628624D01*
X158300000Y-86929605D01*
X156600982Y-88628624D01*
X156852959Y-88957746D01*
X157311473Y-89197629D01*
X157807976Y-89343451D01*
X158323387Y-89389607D01*
X158837899Y-89334325D01*
X159331740Y-89179730D01*
X159747041Y-88957746D01*
X159999018Y-88628624D01*
X159999018Y-96371376D01*
X159747041Y-96042254D01*
X159288527Y-95802371D01*
X158792024Y-95656549D01*
X158276613Y-95610393D01*
X157762101Y-95665675D01*
X157268260Y-95820270D01*
X156852959Y-96042254D01*
X156600982Y-96371376D01*
X158300000Y-98070395D01*
X159999018Y-96371376D01*
X159999018Y-96730587D01*
X158479605Y-98250000D01*
X160178624Y-99949018D01*
X160507746Y-99697041D01*
X160747629Y-99238527D01*
X160893451Y-98742024D01*
X160939607Y-98226613D01*
X160939607Y-100348000D01*
X159831062Y-100348000D01*
X159999018Y-100128624D01*
X158300000Y-98429605D01*
X156600982Y-100128624D01*
X156768937Y-100348000D01*
X156152000Y-100348000D01*
X156152000Y-99742782D01*
X156421376Y-99949018D01*
X158120395Y-98250000D01*
X156421376Y-96550982D01*
X156152000Y-96757217D01*
X156152000Y-88242782D01*
X156421376Y-88449018D01*
X158120395Y-86750000D01*
X156421376Y-85050982D01*
X156152000Y-85257217D01*
X156152000Y-84652000D01*
X156768937Y-84652000D01*
X156600982Y-84871376D01*
X158300000Y-86570395D01*
X159999018Y-84871376D01*
X159831062Y-84652000D01*
X183248000Y-84652000D01*
X183248000Y-89184722D01*
X183189827Y-89126142D01*
X183014726Y-89008035D01*
X182820019Y-88926187D01*
X182613122Y-88883717D01*
X182401916Y-88882243D01*
X182194447Y-88921820D01*
X181998616Y-89000941D01*
X181821882Y-89116592D01*
X181670978Y-89264368D01*
X181551651Y-89438641D01*
X181468447Y-89632772D01*
X181424533Y-89839367D01*
X181421584Y-90050557D01*
X181459712Y-90258298D01*
X181537464Y-90454676D01*
X181651878Y-90632213D01*
X181798598Y-90784145D01*
X181972033Y-90904686D01*
X182165578Y-90989244D01*
X182371862Y-91034598D01*
X182583026Y-91039021D01*
X182791028Y-91002345D01*
X182987945Y-90925966D01*
X183166276Y-90812794D01*
X183248000Y-90734968D01*
X183248000Y-91647338D01*
X183210527Y-91609865D01*
X183129897Y-91690494D01*
X183058694Y-91514957D01*
X182855787Y-91424889D01*
X182639207Y-91376136D01*
X182417277Y-91370572D01*
X182198526Y-91408412D01*
X181991360Y-91488202D01*
X181941306Y-91514957D01*
X181870102Y-91690497D01*
X182500000Y-92320395D01*
X182514142Y-92306252D01*
X182693747Y-92485857D01*
X182679605Y-92500000D01*
X182693747Y-92514142D01*
X182514142Y-92693747D01*
X182500000Y-92679605D01*
X182320395Y-92859210D01*
X182320395Y-92500000D01*
X181690497Y-91870102D01*
X181514957Y-91941306D01*
X181424889Y-92144213D01*
X181376136Y-92360793D01*
X181370572Y-92582723D01*
X181408412Y-92801474D01*
X181488202Y-93008640D01*
X181514957Y-93058694D01*
X181690497Y-93129898D01*
X182320395Y-92500000D01*
X182320395Y-92859210D01*
X181870102Y-93309503D01*
X181941306Y-93485043D01*
X182144213Y-93575111D01*
X182360793Y-93623864D01*
X182582723Y-93629428D01*
X182801474Y-93591588D01*
X183008640Y-93511798D01*
X183058694Y-93485043D01*
X183129897Y-93309505D01*
X183129898Y-93309506D01*
X183210527Y-93390135D01*
X183248000Y-93352662D01*
X183248000Y-93967982D01*
X183200000Y-93961176D01*
X183129898Y-93961176D01*
X181800000Y-93961176D01*
X181738823Y-93966148D01*
X181637301Y-93997893D01*
X181548607Y-94056611D01*
X181479733Y-94137672D01*
X181436109Y-94234684D01*
X181421176Y-94340000D01*
X181421176Y-94881688D01*
X179230419Y-95044152D01*
X179230419Y-91151245D01*
X179191412Y-90912715D01*
X179106620Y-90686378D01*
X179066810Y-90611897D01*
X178881057Y-90528548D01*
X178701452Y-90708153D01*
X178701452Y-90348943D01*
X178618103Y-90163190D01*
X178398101Y-90063103D01*
X178162801Y-90007859D01*
X177921245Y-89999581D01*
X177682715Y-90038588D01*
X177456378Y-90123380D01*
X177381897Y-90163190D01*
X177298548Y-90348943D01*
X178000000Y-91050395D01*
X178701452Y-90348943D01*
X178701452Y-90708153D01*
X178179605Y-91230000D01*
X178881057Y-91931452D01*
X179066810Y-91848103D01*
X179166897Y-91628101D01*
X179222141Y-91392801D01*
X179230419Y-91151245D01*
X179230419Y-95044152D01*
X179178824Y-95047979D01*
X179178824Y-94570000D01*
X179178824Y-92970000D01*
X179173852Y-92908823D01*
X179142107Y-92807301D01*
X179083389Y-92718607D01*
X179002328Y-92649733D01*
X178905316Y-92606109D01*
X178800000Y-92591176D01*
X178701452Y-92591176D01*
X178701452Y-92111057D01*
X178000000Y-91409605D01*
X177820395Y-91589210D01*
X177820395Y-91230000D01*
X177118943Y-90528548D01*
X176933190Y-90611897D01*
X176833103Y-90831899D01*
X176777859Y-91067199D01*
X176769581Y-91308755D01*
X176808588Y-91547285D01*
X176893380Y-91773622D01*
X176933190Y-91848103D01*
X177118943Y-91931452D01*
X177820395Y-91230000D01*
X177820395Y-91589210D01*
X177298548Y-92111057D01*
X177381897Y-92296810D01*
X177601899Y-92396897D01*
X177837199Y-92452141D01*
X178078755Y-92460419D01*
X178317285Y-92421412D01*
X178543622Y-92336620D01*
X178618103Y-92296810D01*
X178701452Y-92111057D01*
X178701452Y-92591176D01*
X177200000Y-92591176D01*
X177138823Y-92596148D01*
X177037301Y-92627893D01*
X176948607Y-92686611D01*
X176879733Y-92767672D01*
X176836109Y-92864684D01*
X176821176Y-92970000D01*
X176821176Y-94570000D01*
X176826148Y-94631177D01*
X176857893Y-94732699D01*
X176916611Y-94821393D01*
X176997672Y-94890267D01*
X177094684Y-94933891D01*
X177200000Y-94948824D01*
X178800000Y-94948824D01*
X178861177Y-94943852D01*
X178962699Y-94912107D01*
X179051393Y-94853389D01*
X179120267Y-94772328D01*
X179163891Y-94675316D01*
X179178824Y-94570000D01*
X179178824Y-95047979D01*
X175186591Y-95344040D01*
X175089144Y-95278311D01*
X174939634Y-95215463D01*
X174780763Y-95182851D01*
X174618584Y-95181719D01*
X174459274Y-95212109D01*
X174308901Y-95272864D01*
X174173192Y-95361669D01*
X174057316Y-95475143D01*
X173965688Y-95608962D01*
X173901798Y-95758030D01*
X173868078Y-95916669D01*
X173865813Y-96078836D01*
X173895091Y-96238355D01*
X173954794Y-96389149D01*
X174042650Y-96525474D01*
X174088545Y-96573000D01*
X172817024Y-96573000D01*
X172817024Y-90768200D01*
X172817024Y-89091800D01*
X172812052Y-89030623D01*
X172780307Y-88929101D01*
X172721589Y-88840407D01*
X172640528Y-88771533D01*
X172543516Y-88727909D01*
X172438200Y-88712976D01*
X170761800Y-88712976D01*
X170700623Y-88717948D01*
X170599101Y-88749693D01*
X170510407Y-88808411D01*
X170441533Y-88889472D01*
X170397909Y-88986484D01*
X170382976Y-89091800D01*
X170382976Y-90768200D01*
X170387948Y-90829377D01*
X170419693Y-90930899D01*
X170478411Y-91019593D01*
X170559472Y-91088467D01*
X170656484Y-91132091D01*
X170761800Y-91147024D01*
X172438200Y-91147024D01*
X172499377Y-91142052D01*
X172600899Y-91110307D01*
X172689593Y-91051589D01*
X172758467Y-90970528D01*
X172802091Y-90873516D01*
X172817024Y-90768200D01*
X172817024Y-96573000D01*
X172815252Y-96573000D01*
X172815252Y-92350843D01*
X172768964Y-92117069D01*
X172678150Y-91896738D01*
X172546269Y-91698242D01*
X172378346Y-91529142D01*
X172180775Y-91395879D01*
X171961083Y-91303529D01*
X171727638Y-91255609D01*
X171489330Y-91253945D01*
X171255238Y-91298601D01*
X171034278Y-91387875D01*
X170834867Y-91518366D01*
X170664598Y-91685105D01*
X170529959Y-91881740D01*
X170436078Y-92100782D01*
X170386530Y-92333888D01*
X170383202Y-92572177D01*
X170426223Y-92806575D01*
X170513951Y-93028153D01*
X170643048Y-93228471D01*
X170808594Y-93399899D01*
X171004284Y-93535908D01*
X171222666Y-93631316D01*
X171455419Y-93682490D01*
X171693680Y-93687481D01*
X171928373Y-93646099D01*
X172150558Y-93559919D01*
X172351772Y-93432224D01*
X172524352Y-93267879D01*
X172661723Y-93073143D01*
X172758654Y-92855433D01*
X172811451Y-92623042D01*
X172815252Y-92350843D01*
X172815252Y-96573000D01*
X170008704Y-96573000D01*
X169995500Y-96559703D01*
X169861044Y-96469011D01*
X169711534Y-96406163D01*
X169552663Y-96373551D01*
X169390484Y-96372419D01*
X169231174Y-96402809D01*
X169080801Y-96463564D01*
X168945092Y-96552369D01*
X168829216Y-96665843D01*
X168737588Y-96799662D01*
X168673698Y-96948730D01*
X168639978Y-97107369D01*
X168637713Y-97269536D01*
X168666991Y-97429055D01*
X168726694Y-97579849D01*
X168814550Y-97716174D01*
X168927212Y-97832839D01*
X169060388Y-97925399D01*
X169209007Y-97990329D01*
X169367406Y-98025155D01*
X169529554Y-98028552D01*
X169689273Y-98000389D01*
X169840480Y-97941740D01*
X169977415Y-97854838D01*
X170006647Y-97827000D01*
X176789973Y-97827000D01*
X176795612Y-97832839D01*
X176928788Y-97925399D01*
X177077407Y-97990329D01*
X177235806Y-98025155D01*
X177397954Y-98028552D01*
X177557673Y-98000389D01*
X177708880Y-97941740D01*
X177845815Y-97854838D01*
X177963264Y-97742993D01*
X178056751Y-97610466D01*
X178122717Y-97462305D01*
X178158648Y-97304152D01*
X178161235Y-97118909D01*
X178129733Y-96959814D01*
X178067930Y-96809869D01*
X177978180Y-96674783D01*
X177863900Y-96559703D01*
X177729444Y-96469011D01*
X177615994Y-96421321D01*
X181719617Y-96117000D01*
X181787136Y-96117000D01*
X181800000Y-96118824D01*
X183200000Y-96118824D01*
X183248000Y-96114922D01*
X183248000Y-100348000D01*
M02*
