G04 #@! TF.FileFunction,Legend,Top*
%FSLAX46Y46*%
G04 Gerber Fmt 4.6, Leading zero omitted, Abs format (unit mm)*
G04 Created by KiCad (PCBNEW (after 2015-mar-04 BZR unknown)-product) date 25.04.2015 22:10:00*
%MOMM*%
G01*
G04 APERTURE LIST*
%ADD10C,0.100000*%
%ADD11C,0.150000*%
%ADD12C,0.254000*%
%ADD13C,0.203200*%
%ADD14C,0.152400*%
%ADD15C,0.127000*%
%ADD16C,0.149860*%
G04 APERTURE END LIST*
D10*
D11*
X179300000Y-87800000D02*
X179300000Y-88600000D01*
X179300000Y-88600000D02*
X176300000Y-88600000D01*
X176300000Y-88600000D02*
X176300000Y-87000000D01*
X176300000Y-87000000D02*
X179300000Y-87000000D01*
X179300000Y-87000000D02*
X179300000Y-87800000D01*
D12*
X170098860Y-90199240D02*
X170098860Y-92200760D01*
X170098860Y-92200760D02*
X170599240Y-92701140D01*
X170599240Y-89698860D02*
X170098860Y-90199240D01*
X172600760Y-92701140D02*
X173101140Y-92200760D01*
X173101140Y-92200760D02*
X173101140Y-90199240D01*
X173101140Y-90199240D02*
X172600760Y-89698860D01*
D13*
X179905000Y-89655200D02*
X176095000Y-89655200D01*
D12*
X176092332Y-89708003D02*
G75*
G03X179905000Y-89706000I1907668J-2537997D01*
G01*
D14*
X176857000Y-92246000D02*
G75*
G03X178000000Y-93389000I1143000J0D01*
G01*
X179143000Y-92246000D02*
G75*
G03X178000000Y-91103000I-1143000J0D01*
G01*
X176349000Y-92246000D02*
G75*
G03X178000000Y-93897000I1651000J0D01*
G01*
X179651000Y-92246000D02*
G75*
G03X178000000Y-90595000I-1651000J0D01*
G01*
X175841000Y-92246000D02*
G75*
G03X178000000Y-94405000I2159000J0D01*
G01*
X180159000Y-92246000D02*
G75*
G03X178000000Y-90087000I-2159000J0D01*
G01*
D15*
X171622000Y-94533000D02*
X171495000Y-94533000D01*
X171495000Y-94533000D02*
X171495000Y-99867000D01*
X175305000Y-99867000D02*
X175305000Y-94533000D01*
X175305000Y-94533000D02*
X171622000Y-94533000D01*
X173908000Y-94533000D02*
X173908000Y-95041000D01*
X173908000Y-95041000D02*
X172892000Y-95041000D01*
X172892000Y-95041000D02*
X172892000Y-94533000D01*
X175305000Y-99867000D02*
X171495000Y-99867000D01*
D11*
X173500000Y-95500000D02*
X174300000Y-95500000D01*
X174300000Y-95500000D02*
X174300000Y-98500000D01*
X174300000Y-98500000D02*
X172700000Y-98500000D01*
X172700000Y-98500000D02*
X172700000Y-95500000D01*
X172700000Y-95500000D02*
X173500000Y-95500000D01*
X178500000Y-97500000D02*
X178500000Y-96700000D01*
X178500000Y-96700000D02*
X181500000Y-96700000D01*
X181500000Y-96700000D02*
X181500000Y-98300000D01*
X181500000Y-98300000D02*
X178500000Y-98300000D01*
X178500000Y-98300000D02*
X178500000Y-97500000D01*
X171600000Y-88100000D02*
X170800000Y-88100000D01*
X170800000Y-88100000D02*
X170800000Y-85100000D01*
X170800000Y-85100000D02*
X172400000Y-85100000D01*
X172400000Y-85100000D02*
X172400000Y-88100000D01*
X172400000Y-88100000D02*
X171600000Y-88100000D01*
X179300000Y-85800000D02*
X179300000Y-86600000D01*
X179300000Y-86600000D02*
X176300000Y-86600000D01*
X176300000Y-86600000D02*
X176300000Y-85000000D01*
X176300000Y-85000000D02*
X179300000Y-85000000D01*
X179300000Y-85000000D02*
X179300000Y-85800000D01*
X168300000Y-92500000D02*
X168300000Y-85000000D01*
X168300000Y-85000000D02*
X151000000Y-85000000D01*
X151000000Y-85000000D02*
X151000000Y-100000000D01*
X151000000Y-100000000D02*
X168300000Y-100000000D01*
D16*
X168299940Y-100000620D02*
X168299940Y-92500000D01*
D11*
X184300000Y-95500000D02*
X184300000Y-89500000D01*
X184300000Y-95000000D02*
G75*
G03X186800000Y-92500000I0J2500000D01*
G01*
X186800000Y-92500000D02*
G75*
G03X184300000Y-90000000I-2500000J0D01*
G01*
X182500000Y-95500000D02*
X181200000Y-95500000D01*
X181200000Y-95500000D02*
X181200000Y-89500000D01*
X181200000Y-89500000D02*
X182500000Y-89500000D01*
X182500000Y-89500000D02*
X185300000Y-89500000D01*
X185300000Y-89500000D02*
X185300000Y-95500000D01*
X185300000Y-95500000D02*
X182500000Y-95500000D01*
X179950000Y-87664286D02*
X179921429Y-87692857D01*
X179835715Y-87721429D01*
X179778572Y-87721429D01*
X179692857Y-87692857D01*
X179635715Y-87635714D01*
X179607143Y-87578571D01*
X179578572Y-87464286D01*
X179578572Y-87378571D01*
X179607143Y-87264286D01*
X179635715Y-87207143D01*
X179692857Y-87150000D01*
X179778572Y-87121429D01*
X179835715Y-87121429D01*
X179921429Y-87150000D01*
X179950000Y-87178571D01*
X180521429Y-87721429D02*
X180178572Y-87721429D01*
X180350000Y-87721429D02*
X180350000Y-87121429D01*
X180292857Y-87207143D01*
X180235715Y-87264286D01*
X180178572Y-87292857D01*
X179771429Y-87971429D02*
X179828572Y-87971429D01*
X179885715Y-88000000D01*
X179914286Y-88028571D01*
X179942857Y-88085714D01*
X179971429Y-88200000D01*
X179971429Y-88342857D01*
X179942857Y-88457143D01*
X179914286Y-88514286D01*
X179885715Y-88542857D01*
X179828572Y-88571429D01*
X179771429Y-88571429D01*
X179714286Y-88542857D01*
X179685715Y-88514286D01*
X179657143Y-88457143D01*
X179628572Y-88342857D01*
X179628572Y-88200000D01*
X179657143Y-88085714D01*
X179685715Y-88028571D01*
X179714286Y-88000000D01*
X179771429Y-87971429D01*
X180228572Y-88514286D02*
X180257144Y-88542857D01*
X180228572Y-88571429D01*
X180200001Y-88542857D01*
X180228572Y-88514286D01*
X180228572Y-88571429D01*
X180828572Y-88571429D02*
X180485715Y-88571429D01*
X180657143Y-88571429D02*
X180657143Y-87971429D01*
X180600000Y-88057143D01*
X180542858Y-88114286D01*
X180485715Y-88142857D01*
X181342858Y-88171429D02*
X181342858Y-88571429D01*
X181085715Y-88171429D02*
X181085715Y-88485714D01*
X181114287Y-88542857D01*
X181171429Y-88571429D01*
X181257144Y-88571429D01*
X181314287Y-88542857D01*
X181342858Y-88514286D01*
X174507143Y-90021429D02*
X174507143Y-89421429D01*
X174650000Y-89421429D01*
X174735715Y-89450000D01*
X174792857Y-89507143D01*
X174821429Y-89564286D01*
X174850000Y-89678571D01*
X174850000Y-89764286D01*
X174821429Y-89878571D01*
X174792857Y-89935714D01*
X174735715Y-89992857D01*
X174650000Y-90021429D01*
X174507143Y-90021429D01*
X175078572Y-89478571D02*
X175107143Y-89450000D01*
X175164286Y-89421429D01*
X175307143Y-89421429D01*
X175364286Y-89450000D01*
X175392857Y-89478571D01*
X175421429Y-89535714D01*
X175421429Y-89592857D01*
X175392857Y-89678571D01*
X175050000Y-90021429D01*
X175421429Y-90021429D01*
D16*
X176521175Y-91485354D02*
X176521175Y-91770801D01*
X175921735Y-91770801D01*
X176207183Y-91285540D02*
X176207183Y-91085727D01*
X176521175Y-91000093D02*
X176521175Y-91285540D01*
X175921735Y-91285540D01*
X175921735Y-91000093D01*
X176521175Y-90743190D02*
X175921735Y-90743190D01*
X175921735Y-90600466D01*
X175950280Y-90514832D01*
X176007370Y-90457743D01*
X176064459Y-90429198D01*
X176178638Y-90400653D01*
X176264272Y-90400653D01*
X176378451Y-90429198D01*
X176435541Y-90457743D01*
X176492630Y-90514832D01*
X176521175Y-90600466D01*
X176521175Y-90743190D01*
D11*
X172850000Y-94221429D02*
X172850000Y-93621429D01*
X172992857Y-93621429D01*
X173078572Y-93650000D01*
X173135714Y-93707143D01*
X173164286Y-93764286D01*
X173192857Y-93878571D01*
X173192857Y-93964286D01*
X173164286Y-94078571D01*
X173135714Y-94135714D01*
X173078572Y-94192857D01*
X172992857Y-94221429D01*
X172850000Y-94221429D01*
X173421429Y-94050000D02*
X173707143Y-94050000D01*
X173364286Y-94221429D02*
X173564286Y-93621429D01*
X173764286Y-94221429D01*
X174278572Y-94221429D02*
X173935715Y-94221429D01*
X174107143Y-94221429D02*
X174107143Y-93621429D01*
X174050000Y-93707143D01*
X173992858Y-93764286D01*
X173935715Y-93792857D01*
X169221429Y-99378572D02*
X169221429Y-99664286D01*
X168621429Y-99664286D01*
X169221429Y-99178572D02*
X168621429Y-99178572D01*
X169050000Y-98978572D01*
X168621429Y-98778572D01*
X169221429Y-98778572D01*
X168621429Y-98550001D02*
X168621429Y-98178572D01*
X168850000Y-98378572D01*
X168850000Y-98292858D01*
X168878571Y-98235715D01*
X168907143Y-98207144D01*
X168964286Y-98178572D01*
X169107143Y-98178572D01*
X169164286Y-98207144D01*
X169192857Y-98235715D01*
X169221429Y-98292858D01*
X169221429Y-98464286D01*
X169192857Y-98521429D01*
X169164286Y-98550001D01*
X169221429Y-97607143D02*
X169221429Y-97950000D01*
X169221429Y-97778572D02*
X168621429Y-97778572D01*
X168707143Y-97835715D01*
X168764286Y-97892857D01*
X168792857Y-97950000D01*
X168621429Y-97407143D02*
X168621429Y-97007143D01*
X169221429Y-97264286D01*
X169278571Y-96921428D02*
X169278571Y-96464285D01*
X169192857Y-96349999D02*
X169221429Y-96264285D01*
X169221429Y-96121428D01*
X169192857Y-96064285D01*
X169164286Y-96035714D01*
X169107143Y-96007142D01*
X169050000Y-96007142D01*
X168992857Y-96035714D01*
X168964286Y-96064285D01*
X168935714Y-96121428D01*
X168907143Y-96235714D01*
X168878571Y-96292856D01*
X168850000Y-96321428D01*
X168792857Y-96349999D01*
X168735714Y-96349999D01*
X168678571Y-96321428D01*
X168650000Y-96292856D01*
X168621429Y-96235714D01*
X168621429Y-96092856D01*
X168650000Y-96007142D01*
X168621429Y-95635713D02*
X168621429Y-95521427D01*
X168650000Y-95464285D01*
X168707143Y-95407142D01*
X168821429Y-95378570D01*
X169021429Y-95378570D01*
X169135714Y-95407142D01*
X169192857Y-95464285D01*
X169221429Y-95521427D01*
X169221429Y-95635713D01*
X169192857Y-95692856D01*
X169135714Y-95749999D01*
X169021429Y-95778570D01*
X168821429Y-95778570D01*
X168707143Y-95749999D01*
X168650000Y-95692856D01*
X168621429Y-95635713D01*
X168878571Y-95035714D02*
X168850000Y-95092856D01*
X168821429Y-95121428D01*
X168764286Y-95149999D01*
X168735714Y-95149999D01*
X168678571Y-95121428D01*
X168650000Y-95092856D01*
X168621429Y-95035714D01*
X168621429Y-94921428D01*
X168650000Y-94864285D01*
X168678571Y-94835714D01*
X168735714Y-94807142D01*
X168764286Y-94807142D01*
X168821429Y-94835714D01*
X168850000Y-94864285D01*
X168878571Y-94921428D01*
X168878571Y-95035714D01*
X168907143Y-95092856D01*
X168935714Y-95121428D01*
X168992857Y-95149999D01*
X169107143Y-95149999D01*
X169164286Y-95121428D01*
X169192857Y-95092856D01*
X169221429Y-95035714D01*
X169221429Y-94921428D01*
X169192857Y-94864285D01*
X169164286Y-94835714D01*
X169107143Y-94807142D01*
X168992857Y-94807142D01*
X168935714Y-94835714D01*
X168907143Y-94864285D01*
X168878571Y-94921428D01*
X175041429Y-97036500D02*
X174755714Y-97236500D01*
X175041429Y-97379357D02*
X174441429Y-97379357D01*
X174441429Y-97150785D01*
X174470000Y-97093643D01*
X174498571Y-97065071D01*
X174555714Y-97036500D01*
X174641429Y-97036500D01*
X174698571Y-97065071D01*
X174727143Y-97093643D01*
X174755714Y-97150785D01*
X174755714Y-97379357D01*
X175041429Y-96465071D02*
X175041429Y-96807928D01*
X175041429Y-96636500D02*
X174441429Y-96636500D01*
X174527143Y-96693643D01*
X174584286Y-96750785D01*
X174612857Y-96807928D01*
X172371889Y-97799060D02*
X172371889Y-98141917D01*
X172371889Y-97970489D02*
X171771889Y-97970489D01*
X171857603Y-98027632D01*
X171914746Y-98084774D01*
X171943317Y-98141917D01*
X171771889Y-97427631D02*
X171771889Y-97370488D01*
X171800460Y-97313345D01*
X171829031Y-97284774D01*
X171886174Y-97256203D01*
X172000460Y-97227631D01*
X172143317Y-97227631D01*
X172257603Y-97256203D01*
X172314746Y-97284774D01*
X172343317Y-97313345D01*
X172371889Y-97370488D01*
X172371889Y-97427631D01*
X172343317Y-97484774D01*
X172314746Y-97513345D01*
X172257603Y-97541917D01*
X172143317Y-97570488D01*
X172000460Y-97570488D01*
X171886174Y-97541917D01*
X171829031Y-97513345D01*
X171800460Y-97484774D01*
X171771889Y-97427631D01*
X171771889Y-96856202D02*
X171771889Y-96799059D01*
X171800460Y-96741916D01*
X171829031Y-96713345D01*
X171886174Y-96684774D01*
X172000460Y-96656202D01*
X172143317Y-96656202D01*
X172257603Y-96684774D01*
X172314746Y-96713345D01*
X172343317Y-96741916D01*
X172371889Y-96799059D01*
X172371889Y-96856202D01*
X172343317Y-96913345D01*
X172314746Y-96941916D01*
X172257603Y-96970488D01*
X172143317Y-96999059D01*
X172000460Y-96999059D01*
X171886174Y-96970488D01*
X171829031Y-96941916D01*
X171800460Y-96913345D01*
X171771889Y-96856202D01*
X172371889Y-96056202D02*
X172086174Y-96256202D01*
X172371889Y-96399059D02*
X171771889Y-96399059D01*
X171771889Y-96170487D01*
X171800460Y-96113345D01*
X171829031Y-96084773D01*
X171886174Y-96056202D01*
X171971889Y-96056202D01*
X172029031Y-96084773D01*
X172057603Y-96113345D01*
X172086174Y-96170487D01*
X172086174Y-96399059D01*
X179836500Y-96501429D02*
X179636500Y-96215714D01*
X179493643Y-96501429D02*
X179493643Y-95901429D01*
X179722215Y-95901429D01*
X179779357Y-95930000D01*
X179807929Y-95958571D01*
X179836500Y-96015714D01*
X179836500Y-96101429D01*
X179807929Y-96158571D01*
X179779357Y-96187143D01*
X179722215Y-96215714D01*
X179493643Y-96215714D01*
X180065072Y-95958571D02*
X180093643Y-95930000D01*
X180150786Y-95901429D01*
X180293643Y-95901429D01*
X180350786Y-95930000D01*
X180379357Y-95958571D01*
X180407929Y-96015714D01*
X180407929Y-96072857D01*
X180379357Y-96158571D01*
X180036500Y-96501429D01*
X180407929Y-96501429D01*
X179199060Y-98570969D02*
X179084774Y-98570969D01*
X179027631Y-98599540D01*
X178999060Y-98628111D01*
X178941917Y-98713826D01*
X178913346Y-98828111D01*
X178913346Y-99056683D01*
X178941917Y-99113826D01*
X178970489Y-99142397D01*
X179027631Y-99170969D01*
X179141917Y-99170969D01*
X179199060Y-99142397D01*
X179227631Y-99113826D01*
X179256203Y-99056683D01*
X179256203Y-98913826D01*
X179227631Y-98856683D01*
X179199060Y-98828111D01*
X179141917Y-98799540D01*
X179027631Y-98799540D01*
X178970489Y-98828111D01*
X178941917Y-98856683D01*
X178913346Y-98913826D01*
X179484775Y-98628111D02*
X179513346Y-98599540D01*
X179570489Y-98570969D01*
X179713346Y-98570969D01*
X179770489Y-98599540D01*
X179799060Y-98628111D01*
X179827632Y-98685254D01*
X179827632Y-98742397D01*
X179799060Y-98828111D01*
X179456203Y-99170969D01*
X179827632Y-99170969D01*
X180084775Y-99113826D02*
X180113347Y-99142397D01*
X180084775Y-99170969D01*
X180056204Y-99142397D01*
X180084775Y-99113826D01*
X180084775Y-99170969D01*
X180656203Y-98570969D02*
X180370489Y-98570969D01*
X180341918Y-98856683D01*
X180370489Y-98828111D01*
X180427632Y-98799540D01*
X180570489Y-98799540D01*
X180627632Y-98828111D01*
X180656203Y-98856683D01*
X180684775Y-98913826D01*
X180684775Y-99056683D01*
X180656203Y-99113826D01*
X180627632Y-99142397D01*
X180570489Y-99170969D01*
X180427632Y-99170969D01*
X180370489Y-99142397D01*
X180341918Y-99113826D01*
X181284775Y-99170969D02*
X181084775Y-98885254D01*
X180941918Y-99170969D02*
X180941918Y-98570969D01*
X181170490Y-98570969D01*
X181227632Y-98599540D01*
X181256204Y-98628111D01*
X181284775Y-98685254D01*
X181284775Y-98770969D01*
X181256204Y-98828111D01*
X181227632Y-98856683D01*
X181170490Y-98885254D01*
X180941918Y-98885254D01*
X170601429Y-86763500D02*
X170315714Y-86963500D01*
X170601429Y-87106357D02*
X170001429Y-87106357D01*
X170001429Y-86877785D01*
X170030000Y-86820643D01*
X170058571Y-86792071D01*
X170115714Y-86763500D01*
X170201429Y-86763500D01*
X170258571Y-86792071D01*
X170287143Y-86820643D01*
X170315714Y-86877785D01*
X170315714Y-87106357D01*
X170001429Y-86563500D02*
X170001429Y-86192071D01*
X170230000Y-86392071D01*
X170230000Y-86306357D01*
X170258571Y-86249214D01*
X170287143Y-86220643D01*
X170344286Y-86192071D01*
X170487143Y-86192071D01*
X170544286Y-86220643D01*
X170572857Y-86249214D01*
X170601429Y-86306357D01*
X170601429Y-86477785D01*
X170572857Y-86534928D01*
X170544286Y-86563500D01*
X173270969Y-86572368D02*
X173270969Y-86915225D01*
X173270969Y-86743797D02*
X172670969Y-86743797D01*
X172756683Y-86800940D01*
X172813826Y-86858082D01*
X172842397Y-86915225D01*
X173270969Y-86315225D02*
X172670969Y-86315225D01*
X173042397Y-86258082D02*
X173270969Y-86086653D01*
X172870969Y-86086653D02*
X173099540Y-86315225D01*
X179950000Y-85521429D02*
X179750000Y-85235714D01*
X179607143Y-85521429D02*
X179607143Y-84921429D01*
X179835715Y-84921429D01*
X179892857Y-84950000D01*
X179921429Y-84978571D01*
X179950000Y-85035714D01*
X179950000Y-85121429D01*
X179921429Y-85178571D01*
X179892857Y-85207143D01*
X179835715Y-85235714D01*
X179607143Y-85235714D01*
X180464286Y-85121429D02*
X180464286Y-85521429D01*
X180321429Y-84892857D02*
X180178572Y-85321429D01*
X180550000Y-85321429D01*
X179950000Y-86471429D02*
X179607143Y-86471429D01*
X179778571Y-86471429D02*
X179778571Y-85871429D01*
X179721428Y-85957143D01*
X179664286Y-86014286D01*
X179607143Y-86042857D01*
X180321429Y-85871429D02*
X180378572Y-85871429D01*
X180435715Y-85900000D01*
X180464286Y-85928571D01*
X180492857Y-85985714D01*
X180521429Y-86100000D01*
X180521429Y-86242857D01*
X180492857Y-86357143D01*
X180464286Y-86414286D01*
X180435715Y-86442857D01*
X180378572Y-86471429D01*
X180321429Y-86471429D01*
X180264286Y-86442857D01*
X180235715Y-86414286D01*
X180207143Y-86357143D01*
X180178572Y-86242857D01*
X180178572Y-86100000D01*
X180207143Y-85985714D01*
X180235715Y-85928571D01*
X180264286Y-85900000D01*
X180321429Y-85871429D01*
X180892858Y-85871429D02*
X180950001Y-85871429D01*
X181007144Y-85900000D01*
X181035715Y-85928571D01*
X181064286Y-85985714D01*
X181092858Y-86100000D01*
X181092858Y-86242857D01*
X181064286Y-86357143D01*
X181035715Y-86414286D01*
X181007144Y-86442857D01*
X180950001Y-86471429D01*
X180892858Y-86471429D01*
X180835715Y-86442857D01*
X180807144Y-86414286D01*
X180778572Y-86357143D01*
X180750001Y-86242857D01*
X180750001Y-86100000D01*
X180778572Y-85985714D01*
X180807144Y-85928571D01*
X180835715Y-85900000D01*
X180892858Y-85871429D01*
X156621428Y-91321429D02*
X157021428Y-91921429D01*
X157021428Y-91321429D02*
X156621428Y-91921429D01*
X157535714Y-91921429D02*
X157250000Y-91921429D01*
X157250000Y-91321429D01*
X158050000Y-91921429D02*
X157707143Y-91921429D01*
X157878571Y-91921429D02*
X157878571Y-91321429D01*
X157821428Y-91407143D01*
X157764286Y-91464286D01*
X157707143Y-91492857D01*
X182528571Y-87607143D02*
X182500000Y-87664286D01*
X182442857Y-87721429D01*
X182357143Y-87807143D01*
X182328571Y-87864286D01*
X182328571Y-87921429D01*
X182471429Y-87892857D02*
X182442857Y-87950000D01*
X182385714Y-88007143D01*
X182271429Y-88035714D01*
X182071429Y-88035714D01*
X181957143Y-88007143D01*
X181900000Y-87950000D01*
X181871429Y-87892857D01*
X181871429Y-87778571D01*
X181900000Y-87721429D01*
X181957143Y-87664286D01*
X182071429Y-87635714D01*
X182271429Y-87635714D01*
X182385714Y-87664286D01*
X182442857Y-87721429D01*
X182471429Y-87778571D01*
X182471429Y-87892857D01*
X182471429Y-87064286D02*
X182471429Y-87407143D01*
X182471429Y-87235715D02*
X181871429Y-87235715D01*
X181957143Y-87292858D01*
X182014286Y-87350000D01*
X182042857Y-87407143D01*
X182771429Y-88878571D02*
X182771429Y-88535714D01*
X183371429Y-88707143D02*
X182771429Y-88707143D01*
X183342857Y-88364285D02*
X183371429Y-88278571D01*
X183371429Y-88135714D01*
X183342857Y-88078571D01*
X183314286Y-88050000D01*
X183257143Y-88021428D01*
X183200000Y-88021428D01*
X183142857Y-88050000D01*
X183114286Y-88078571D01*
X183085714Y-88135714D01*
X183057143Y-88250000D01*
X183028571Y-88307142D01*
X183000000Y-88335714D01*
X182942857Y-88364285D01*
X182885714Y-88364285D01*
X182828571Y-88335714D01*
X182800000Y-88307142D01*
X182771429Y-88250000D01*
X182771429Y-88107142D01*
X182800000Y-88021428D01*
X182771429Y-87649999D02*
X182771429Y-87535713D01*
X182800000Y-87478571D01*
X182857143Y-87421428D01*
X182971429Y-87392856D01*
X183171429Y-87392856D01*
X183285714Y-87421428D01*
X183342857Y-87478571D01*
X183371429Y-87535713D01*
X183371429Y-87649999D01*
X183342857Y-87707142D01*
X183285714Y-87764285D01*
X183171429Y-87792856D01*
X182971429Y-87792856D01*
X182857143Y-87764285D01*
X182800000Y-87707142D01*
X182771429Y-87649999D01*
X183371429Y-87135714D02*
X182771429Y-87135714D01*
X182771429Y-86907142D01*
X182800000Y-86850000D01*
X182828571Y-86821428D01*
X182885714Y-86792857D01*
X182971429Y-86792857D01*
X183028571Y-86821428D01*
X183057143Y-86850000D01*
X183085714Y-86907142D01*
X183085714Y-87135714D01*
X182971429Y-86278571D02*
X183371429Y-86278571D01*
X182742857Y-86421428D02*
X183171429Y-86564285D01*
X183171429Y-86192857D01*
X183028571Y-85878571D02*
X183000000Y-85935713D01*
X182971429Y-85964285D01*
X182914286Y-85992856D01*
X182885714Y-85992856D01*
X182828571Y-85964285D01*
X182800000Y-85935713D01*
X182771429Y-85878571D01*
X182771429Y-85764285D01*
X182800000Y-85707142D01*
X182828571Y-85678571D01*
X182885714Y-85649999D01*
X182914286Y-85649999D01*
X182971429Y-85678571D01*
X183000000Y-85707142D01*
X183028571Y-85764285D01*
X183028571Y-85878571D01*
X183057143Y-85935713D01*
X183085714Y-85964285D01*
X183142857Y-85992856D01*
X183257143Y-85992856D01*
X183314286Y-85964285D01*
X183342857Y-85935713D01*
X183371429Y-85878571D01*
X183371429Y-85764285D01*
X183342857Y-85707142D01*
X183314286Y-85678571D01*
X183257143Y-85649999D01*
X183142857Y-85649999D01*
X183085714Y-85678571D01*
X183057143Y-85707142D01*
X183028571Y-85764285D01*
X183371429Y-85449999D02*
X182971429Y-85135713D01*
X182971429Y-85449999D02*
X183371429Y-85135713D01*
X183371429Y-84964285D02*
X182971429Y-84649999D01*
X182971429Y-84964285D02*
X183371429Y-84649999D01*
M02*
